<?xml version="1.0" encoding="UTF-8"?>
<svg xmlns="http://www.w3.org/2000/svg" version="1.1" viewBox="43.4945 8.4779 260.0000 260.0000">
  <!-- Generator: Adobe Illustrator 30.1.0, SVG Export Plug-In . SVG Version: 2.1.1 Build 136)  -->
  <defs>
    <style>
      .st0 {
        fill: #fcd35c;
      }

      .st1 {
        fill: #001c30;
      }

      .st2 {
        fill: #fff;
      }

      .st3 {
        fill: #ffaa43;
      }

      .st4 {
        fill: #8cd837;
      }

      .st5 {
        fill: #092425;
      }

      .st6 {
        fill: #fefdfe;
      }
    </style>
  </defs>
  <g id="Layer_3">
    <rect class="st5" width="952.97" height="276.89"/>
    <rect class="st5" y="788.94" width="952.97" height="276.89"/>
  </g>
  <g id="Layer_1">
    <path class="st4" d="M264.12,948.21l-.04-2.1-.35-.22-.39-2.32-2.61.36c-4.13-3.07-6.77-7.54-7.46-12.65-.64-4.75.61-9.76,3.07-12.44l21.91-22.58-26.82-6.6-.16-.03c-12.69-2.55-21.46-14.62-19.96-27.48l3-25.86-27.25,12.49c-9.76,4.48-21.53.65-26.8-8.71l-14.7-26.12-14.7,26.12c-5.27,9.36-17.04,13.18-26.8,8.71l-27.25-12.49,3.46,29.77c1.24,10.67-6.04,20.68-16.56,22.8l-29.38,5.91,23.65,25.69c1.69,1.84,2.89,4.08,3.52,6.55l-13.93,1.65,10.48,13.82-11.56,17.98,15.86-1.88-7.08,42.34,32.8-4.24c-.78,6.98.81,14.12,4.49,19.87,5.53,8.67,15.32,14.05,25.56,14.05,2.7,0,5.35-.37,7.84-1.08,6.27-1.62,16.09-3.97,26.49-6.46l.17-.04c18.09-4.33,38.59-9.23,48.79-12.25,7.87-2.04,14.08-8.45,16.22-16.73,1.24-4.79,1.03-9.63-.6-14.05l31.77-4.1-4.68-27.69Z"/>
    <g>
      <path class="st2" d="M145.69,246.76c-10.58,0-20.69-5.56-26.4-14.51-3.63-5.68-5.26-12.49-4.76-19.25l-32.89,4.25,7.08-42.35-16.64,1.97,12.33-19.18-11.11-14.65,16.05-1.9c-.7-2.15-1.86-4.15-3.42-5.85l-23.04-25.04,28.51-5.74c10.78-2.17,18.23-12.42,16.96-23.35l-3.35-28.89,26.44,12.12c10,4.58,22.05.67,27.44-8.92l14.27-25.34,14.27,25.34c5.39,9.58,17.45,13.5,27.44,8.92l26.44-12.12-2.9,24.98c-1.52,13.11,7.42,25.42,20.36,28.03l.23.05,25.88,6.37-21.24,21.89c-2.64,2.91-3.92,7.97-3.26,12.91.45,3.36,2.21,9.64,8.98,13.89l2.09,1.31,5.07,30.33-30.56,3.95c1.29,4.24,1.41,8.91.24,13.46-2.23,8.62-8.7,15.29-16.9,17.43-10.28,3.04-30.75,7.94-48.82,12.26-10.46,2.5-20.32,4.86-26.62,6.48-2.64.75-5.39,1.12-8.16,1.12Z"/>
      <g>
        <path class="st4" d="M100.74,159.47l-10.77,1.11c7.55-8.2,7.55-20.82,0-29.02l-16.43-17.85,18.93-3.81c13.67-2.75,22.95-15.52,21.34-29.37l-2.23-19.18,17.56,8.05c12.68,5.81,27.69.93,34.53-11.22l9.47-16.83,9.47,16.83c6.84,12.15,21.85,17.03,34.53,11.22l17.56-8.05-1.77,15.28c-1.86,16.06,8.89,30.86,24.74,34.05l16.57,4.08-14.62,15.07c-7.55,8.2-7.29,26.38,6.8,35.23l-28.89,12.8-136.78-18.39Z"/>
        <polygon class="st1" points="140.09 187.33 145.44 204.15 155.06 206.22 145.44 189.89 140.09 187.33"/>
        <path class="st1" d="M126.34,177.57l13.75,24.89s-37.3-21.45-35.99-54.81l21.81,29.02"/>
        <path class="st6" d="M234.41,136.16c-8.7-6.64-8.04-19.93,1.25-25.69-11.13-20.17-34.5-34.06-61.54-34.06-24.95,0-46.77,11.83-58.74,29.49,6.64,7.03,5.4,18.72-3.21,24l-6.43,3.94c-.07,1.09-.1,2.18-.1,3.28,0,1.83.11,3.63.29,5.42l9.71.23c10.97.26,18.26,11.45,14.06,21.59l-5.8,14c1.13,1.08,2.3,2.12,3.51,3.12l12.66-8.75c9.03-6.24,21.51-1.47,24.07,9.2l3.75,15.62c1.4.11,2.81.18,4.23.22l5.32-15.16c3.64-10.36,16.54-13.83,24.88-6.7l12.06,10.31c1.23-.8,2.44-1.62,3.61-2.49l-4.51-15.09c-3.15-10.51,5.25-20.91,16.19-20.05l11.52.91c.56-2.38.94-4.82,1.17-7.3l-7.93-6.05Z"/>
        <ellipse class="st0" cx="174.12" cy="122.11" rx="53.87" ry="46.4"/>
        <path class="st2" d="M173.39,162.16c27.26,0,54.27-11.42,54.27-34.9,0-4.31-2.46-19.64-3.84-23.56l-73.72,53.44c6.94,3.21,14.87,5.03,23.3,5.03Z"/>
        <path class="st1" d="M174.12,72.75c-41.64,0-75.52,31.7-75.52,70.66s33.88,70.66,75.52,70.66,75.52-31.7,75.52-70.66-33.88-70.66-75.52-70.66ZM174.12,78.57c28.13,0,51.01,19.53,51.01,43.54s-22.88,43.54-51.01,43.54-51.01-19.53-51.01-43.54,22.88-43.54,51.01-43.54ZM121.43,103.88c-2.6,5.64-4.05,11.79-4.05,18.23,0,27.16,25.45,49.26,56.73,49.26s56.73-22.1,56.73-49.26c0-6.44-1.45-12.59-4.05-18.23,7.65,9.37,12.17,20.84,12.17,33.23,0,31.47-29.09,57.08-64.86,57.08s-64.86-25.6-64.86-57.08c0-12.39,4.52-23.87,12.17-33.23ZM174.12,208.14c-31.87,0-58.78-20.03-66.99-47.27,10.62,23.74,36.64,40.57,66.99,40.57s56.38-16.83,66.99-40.57c-8.22,27.23-35.13,47.27-66.99,47.27Z"/>
        <g>
          <path class="st1" d="M132.88,99.75c1.12-.06,2.05-.08,2.98-.18.33-.04.72-.2.95-.42.82-.77,1.6-1.57,2.36-2.38.28-.29.56-.46.97-.35,1.37.4,2.47-.08,3.61-.86,1.18-.8,2.15-1.71,3.07-2.74,1.77-1.99,3.65-3.88,5.48-5.79.12-.12.33-.25.49-.24,1.88.09,3.76.21,5.83.33-.59.47-1.05.84-1.51,1.21-.95.75-1.83,1.61-3.11,1.93-.14.04-.33.18-.37.3-.47,1.43-.92,2.88-1.42,4.48,1-.29,1.85-.5,2.68-.8.82-.29,1.55-.21,2.39-.03,1.42.3,2.44.93,2.88,2.24.32.95,1.16,1.14,2.04,1.18.39.02.84-.2,1.18-.42.57-.37,1.14-.42,1.79-.28.84.19,1.7.31,2.61.47.16-.46.26-.9.45-1.29.11-.23.33-.49.57-.57,4.03-1.35,8.06-2.66,12.06-4,.36-.12.6-.07.73.24.6,1.43,1.72,1.78,3.28,1.51.99-.17,2.03-.15,3.05-.15.28,0,.63.15.83.33.53.48.97,1.05,1.5,1.53,1.14,1.03,2.32,2.03,3.54,3.09-1.05.49-2.14,1.09-3.32,1.5-.44.15-1.08-.08-1.59-.25-.82-.27-1.38-.11-1.88.56-.49.64-1.1,1.21-1.69,1.77-.13.12-.45.16-.63.1-.32-.11-.64-.29-.9-.51-.91-.76-1.97-.83-3.07-.63-.27.05-.57.23-.73.44-.63.82-1.45,1.25-2.52,1.33-.22.02-.43.1-.65.11-1.44.08-2.56.56-3.06,1.95-.07.21-.32.4-.53.52-1.19.67-2.41,1.3-3.61,1.98-.34.19-.54.16-.76-.14-.42-.58-.87-1.13-1.34-1.74-1.36.68-2.7,1.33-4.01,2.02-.18.09-.29.35-.35.56-.71,2.16-1.42,4.34-2.1,6.53-.14.45-.33.67-.84.51-.19-.06-.4-.06-.6-.07-.48-.01-.71-.23-.74-.7-.03-.46-.2-.92-.2-1.38.01-1.78-1.15-2.92-2.34-4.02-1.03-.95-2.15-1.8-3.24-2.69-.18-.14-.39-.27-.61-.33-1.82-.43-3.64-.88-5.56-.87-.46,0-.98-.11-1.37-.32-1.55-.84-3.29-1.15-5.03-1.42-.52-.08-1.1,0-1.63.13-1.14.28-2.11.04-3.14-.39-1.41-.58-1.84-1.85-2.82-2.92Z"/>
          <path class="st1" d="M217.14,132.22c-1.13-1.82-1.82-3.79-2.48-5.76-.32-.94-.63-1.92-1.15-2.76-.57-.92-1.45-1.67-2.07-2.57-.74-1.06-1.73-1.5-2.97-1.53-.21,0-.5-.03-.63.09-.67.57-1.37,1.13-1.92,1.8-1.07,1.29-2.04,2.67-3.08,4.01-.3.38-1.25.38-1.48-.03-.51-.95-.93-1.93-1.47-3.07.98.21,1.33-.31,1.73-.76.27-.31.58-.59.82-.92.16-.23.31-.52.32-.8.07-2.1.08-4.19.17-6.26.03-.7-.12-1.28-.63-1.8-.62-.64-.92-1.37-.95-2.24-.04-1.06-.21-2.13-.28-3.18-.03-.47-.2-.69-.69-.83-3.86-1.05-7.7-2.12-11.54-3.16-.31-.08-.7-.05-1.01.05-.91.28-1.79.65-2.71.92-.64.19-.96.46-.8,1.14.08.34,0,.71.08,1.05.17.79-.12,1.32-.89,1.62-1.44.55-1.84,1.55-1.74,3,.06.87-.28,1.85-.75,2.62-.24.39-1.14.42-1.75.6-.23.07-.48.11-.71.19-.15.06-.34.14-.42.26-.37.6-.83,1.2-1.01,1.85-.2.73-.19,1.51-.25,2.3-.07.58-.08,1.47-.1,1.68-.08.72.04,1.52-.24,2.15-.4.9-1.1,1.69-1.65,2.54-.09.14-.16.4-.09.52.48.76.94,1.55,1.53,2.23.58.67.65.62.07,1.33-.06.07-.11.14-.17.21-.58.71-.69,2.19-.22,2.98,1.39,2.36,2.61,4.82,3.48,7.45.84,2.54,1.14,5.07.23,7.72-.76,2.22-1.27,4.55-1.89,6.85-.06.23-.1.47-.16.79.35-.04.57-.06.8-.09,6.71-1.06,13.41-2.12,20.09-3.17,3.88-.61,7.76-1.21,11.63-1.85.29-.05.66-.27.78-.52.91-1.88,1.78-3.77,2.6-5.67.15-.34.15-.8.05-1.17-.12-.48-.1-.83.29-1.14.59-.46.9-1.04.89-1.84,0-.32.27-.66.49-.94.25-.31.55-.59.88-.81.8-.54,1.17-1.25,1.07-2.25-.07-.69.05-1.38.04-2.07,0-.25-.03-.55-.17-.77Z"/>
        </g>
        <path class="st4" d="M137.21,200.08c-10.21.22-17.1,10.52-13.4,20.03h0c4.47,11.5,9.7,18.66,21.71,15.8l79.14-15.52c9.5-2.26,15.27-11.91,12.78-21.35l-4.62-6.45-95.62,7.49Z"/>
        <path class="st2" d="M122.11,213.33l61.17,13.37-46.33,9.4s-11.89-.84-14.84-22.77Z"/>
        <path class="st1" d="M145.69,241.26c-8.57,0-16.94-4.41-21.76-11.97-6.36-9.94-4.99-23.65,3.17-31.93,7.51-8.28,18.13-8.25,27.5-8.22,2.92,0,5.68.02,8.3-.2l59.73-3.92c5.29-.2,9.82,1.52,13.47,5.11,4.66,4.38,6.48,11.25,4.75,17.95-1.74,6.73-6.73,11.9-13.04,13.51-10.12,3-30.6,7.9-48.67,12.22-10.51,2.51-20.43,4.89-26.73,6.51-2.21.63-4.47.93-6.72.93ZM152.83,196.14c-8.04,0-15.53.36-20.58,5.97l-.12.12c-5.96,6.01-6.96,16.02-2.3,23.29,4.37,6.84,13.09,10.23,20.75,8.05,6.45-1.66,16.4-4.04,26.94-6.57,18.03-4.31,38.46-9.2,48.37-12.14l.15-.04c3.92-.98,6.92-4.16,8.04-8.49,1.09-4.23.02-8.48-2.79-11.11l-.07-.07c-2.24-2.22-4.96-3.25-8.28-3.13l-59.52,3.91c-2.86.24-5.9.23-8.84.22-.59,0-1.17,0-1.75,0Z"/>
        <g>
          <path class="st1" d="M238.98,191.35l31.16-4.03-3.72-22.26-13.78,1.71-2.6-18.6-15.51,1.85,2.02,18.74-8.25,1.02-1.72-18.81-15.69,1.87.23,3.89-4.55-3.38-10.48,1.25-6.63,6.92-6.85-5.31-19.82,2.36h0s-3.44.41-3.44.41l-6.23-8.21,8.1-12.61-77.73,9.2,7.63,10.06-8.1,12.61,12.34-1.46-7.07,42.27,18.02-2.33,1.5-11.06,5.08-.64,4.3-4.15-1.75,14.67,25.43-3.29h0s10.87-1.41,10.87-1.41h0s9.46-1.22,9.46-1.22h0s22.43-2.9,22.43-2.9l1.93-4.06-1.93,4.06,35.75-4.62h0s19.59-2.53,19.59-2.53h0Z"/>
          <g>
            <path class="st3" d="M101.92,204.17l-7.7.99,5.51-34.82,14.39-1.73,6.4,5.68-1.18,10.13-8.31,7.92-7.52.95-1.57,10.89ZM104.5,186.25l7.42-.92,1.33-10.16-7.28.89-1.47,10.2Z"/>
            <path class="st3" d="M121.06,201.72l.8-7.24,3.76-.48,2.12-20.59-3.61.44.72-6.53,14.22-1.71-.54,6.49-3.59.44-1.83,20.52,3.74-.47-.59,7.19-15.19,1.95Z"/>
            <path class="st3" d="M162.57,196.4l-7.49.96-6.43-16.58-1.09,17.54-7.54.97,2.58-34.1,7.06-.85,6.25,15.54.79-16.39,7.02-.84-1.16,33.75Z"/>
            <path class="st3" d="M166.31,195.92l.93-33.7,13.94-1.68,7.02,5.5.09,6.5-3.53,3.75,3.62,2.91.09,6.84-7.3,7.97-14.87,1.91ZM174.04,174.3l7.14-.88v-6.52s-7.05.86-7.05.86l-.09,6.54ZM173.85,187.89l7.32-.93v-6.86s-7.23.9-7.23.9l-.09,6.89Z"/>
            <path class="st3" d="M199.37,184.67l.24,6.98-7.36.94-.56-26.97,6.77-7.15,6.88-.83,7.24,5.44,1.65,26.7-7.3.94-.33-6.96-7.24.92ZM199.14,177.86l7.14-.89-.63-13.05-6.97.85.45,13.09Z"/>
            <path class="st3" d="M215.63,156.4l6.82-.82,2.14,25.89,7.15-.9-.64-6.7,7.04-.88,1.49,13.53-21.73,2.78-2.26-32.9Z"/>
            <path class="st3" d="M239.42,153.54l6.75-.81,3.34,25.59,7.06-.89-.96-6.62,6.95-.87,2.11,13.36-21.46,2.75-3.8-32.52Z"/>
          </g>
        </g>
        <g>
          <polyline class="st0" points="199.11 176.87 199.14 177.86 206.28 176.97 206.24 176.04"/>
          <polygon class="st0" points="101.92 204.17 103.49 193.28 111.01 192.33 117.13 186.5 96.79 188.89 94.21 205.16 101.92 204.17"/>
          <polygon class="st0" points="121.86 194.47 121.06 201.72 136.25 199.77 136.84 192.58 133.1 193.05 133.87 184.54 126.5 185.4 125.61 194 121.86 194.47"/>
          <polygon class="st0" points="147.57 198.32 148.53 182.81 141.21 183.67 140.03 199.28 147.57 198.32"/>
          <polygon class="st0" points="155.08 197.36 162.57 196.4 163.1 181.1 149.41 182.71 155.08 197.36"/>
          <path class="st0" d="M181.17,194.01l7.3-7.97-.09-6.84-1.16-.93-20.49,2.41-.42,15.24,14.87-1.91ZM173.94,181.01l7.23-.9v6.86l-7.32.93"/>
          <polygon class="st0" points="199.61 191.65 199.37 184.67 206.61 183.75 206.94 190.71 214.25 189.77 213.35 175.2 206.24 176.04 206.28 176.97 199.14 177.86 199.11 176.87 191.95 177.71 192.26 192.59 199.61 191.65"/>
          <polygon class="st0" points="239.62 186.52 238.13 172.99 231.1 173.87 231.74 180.57 224.59 181.48 223.97 173.95 216.89 174.79 217.89 189.3 239.62 186.52"/>
          <polygon class="st0" points="264.68 183.31 262.57 169.94 255.61 170.81 256.57 177.43 249.51 178.32 248.56 171.07 241.56 171.89 243.22 186.06 264.68 183.31"/>
        </g>
        <g>
          <path class="st1" d="M135.95,210.54l3.97-.77,3.07,15.87,3.97-.77-.77-3.97,3.97-.77,1.53,7.94-11.91,2.3-3.83-19.84Z"/>
          <path class="st1" d="M164.81,221.43l.77,3.97-11.91,2.3-3.83-19.84,11.91-2.3.77,3.97-7.94,1.53.77,3.97,5.95-1.15.77,3.97-5.95,1.15.77,3.97,7.94-1.53Z"/>
          <path class="st1" d="M170.76,220.28l.77,3.97-3.97.77-3.07-15.87,3.2-4.74,3.97-.77,4.74,3.2,3.07,15.87-3.97.77-.77-3.97-3.97.77ZM169.99,216.31l3.97-.77-1.53-7.94-3.97.77,1.53,7.94Z"/>
          <path class="st1" d="M187.85,212.86l-1.98.38-.77-3.97,5.95-1.15,2.3,11.91-7.94,1.53-4.74-3.2-2.3-11.91,3.2-4.74,5.95-1.15.77,3.97-5.95,1.15,2.3,11.91,3.97-.77-.77-3.97Z"/>
          <path class="st1" d="M191.5,199.81l3.97-.77,3.07,15.87,3.97-.77-3.07-15.87,3.97-.77,3.07,15.87-3.2,4.74-3.97.77-4.74-3.2-3.07-15.87Z"/>
          <path class="st1" d="M220.36,210.7l.77,3.97-11.91,2.3-3.83-19.84,11.91-2.3.77,3.97-7.94,1.53.77,3.97,5.95-1.15.77,3.97-5.95,1.15.77,3.97,7.94-1.53Z"/>
        </g>
        <polygon class="st0" points="194.81 129.83 197.41 135.09 203.23 135.94 199.02 140.04 200.01 145.83 194.81 143.1 189.61 145.83 190.6 140.04 186.4 135.94 192.21 135.09 194.81 129.83"/>
        <g>
          <polygon class="st4" points="154.21 158.05 90.01 165.65 95.4 157.26 90.01 150.14 154.21 142.54 148.81 150.93 154.21 158.05"/>
          <g>
            <path class="st1" d="M98.73,151.9l2.02-.24v7.81l2.02-.24v-1.95l2.02-.24v3.91l-6.06.72v-9.77Z"/>
            <path class="st1" d="M107.81,158.63v1.95l-2.02.24v-7.81l2.02-2.19,2.02-.24,2.02,1.71v7.81l-2.02.24v-1.95l-2.02.24ZM107.81,156.68l2.02-.24v-3.91l-2.02.24v3.91Z"/>
            <path class="st1" d="M118.92,159.27l-2.02.24-2.02-4.64v4.88l-2.02.24v-9.77l2.02-.24,2.02,4.64v-4.88l2.02-.24v9.77Z"/>
            <path class="st1" d="M125.99,150.62v.98l-2.02.24v-.98l-2.02.24v1.95l2.02-.24,2.02,1.71v1.95l-2.02,2.19-2.02.24-2.02-1.71v-.98l2.02-.24v.98l2.02-.24v-1.95l-2.02.24-2.02-1.71v-1.95l2.02-2.19,2.02-.24,2.02,1.71Z"/>
            <path class="st1" d="M127,158.31v-1.95l1.01-.12v-5.86l-1.01.12v-1.95l4.04-.48v1.95l-1.01.12v5.86l1.01-.12v1.95l-4.04.48Z"/>
            <path class="st1" d="M138.1,157l-2.02.24-2.02-4.65v4.88l-2.02.24v-9.77l2.02-.24,2.02,4.64v-4.88l2.02-.24v9.77Z"/>
            <path class="st1" d="M143.15,152.49l-1.01.12v-1.95l3.03-.36v5.86l-4.04.48-2.02-1.71v-5.86l2.02-2.19,3.03-.36v1.95l-3.03.36v5.86l2.02-.24v-1.95Z"/>
          </g>
        </g>
        <g>
          <circle class="st2" cx="225.13" cy="189.3" r="13.19"/>
          <path class="st1" d="M225.13,204.89c-8.59,0-15.58-6.99-15.58-15.58s6.99-15.58,15.58-15.58,15.58,6.99,15.58,15.58-6.99,15.58-15.58,15.58ZM225.13,178.5c-5.96,0-10.81,4.85-10.81,10.81s4.85,10.81,10.81,10.81,10.81-4.85,10.81-10.81-4.85-10.81-10.81-10.81Z"/>
          <path class="st4" d="M225.13,197.08c4.29,0,7.77-3.48,7.77-7.78,0-1.33-.34-2.59-.93-3.69l-11.01,10.25c1.2.76,2.63,1.21,4.16,1.21Z"/>
        </g>
      </g>
    </g>
    <g>
      <path class="st2" d="M891.22,154.23l-5.43-32.45-13.27,1.82-3.44-18.29-90.64,10.98-4.52-4.59,12-17.31-97.92,10.84,11.11,14.65-12.33,19.18,16.64-1.97-7.08,42.35,32.89-4.25c-.5,6.76,1.13,13.58,4.76,19.25,5.71,8.95,15.83,14.51,26.4,14.51,2.77,0,5.51-.38,8.16-1.12,6.3-1.62,16.15-3.98,26.62-6.48,18.07-4.32,38.54-9.22,48.82-12.26,8.2-2.14,14.67-8.81,16.9-17.43,1.17-4.55,1.06-9.21-.24-13.46l30.56-3.95Z"/>
      <g>
        <polygon class="st1" points="754.81 149.51 760.15 166.33 769.77 168.4 760.15 152.07 754.81 149.51"/>
        <path class="st1" d="M741.06,139.75l13.75,24.89s-37.3-21.45-35.99-54.81l21.81,29.02"/>
        <path class="st4" d="M751.92,162.26c-10.21.22-17.1,10.52-13.4,20.03h0c4.47,11.5,9.7,18.66,21.71,15.8l79.14-15.52c9.5-2.26,15.27-11.91,12.78-21.35l-4.62-6.45-95.62,7.49Z"/>
        <path class="st2" d="M736.82,175.51l61.17,13.37-46.33,9.4s-11.89-.84-14.84-22.77Z"/>
        <path class="st1" d="M760.41,203.44c-8.57,0-16.94-4.41-21.76-11.97-6.36-9.94-4.99-23.65,3.17-31.93,7.51-8.28,18.13-8.25,27.5-8.22,2.92,0,5.68.02,8.3-.2l59.73-3.92c5.29-.2,9.82,1.52,13.47,5.11,4.66,4.38,6.48,11.25,4.75,17.95-1.74,6.73-6.73,11.9-13.04,13.51-10.12,3-30.6,7.9-48.67,12.22-10.51,2.51-20.43,4.89-26.73,6.51-2.21.63-4.47.93-6.72.93ZM767.55,158.32c-8.04,0-15.53.36-20.58,5.97l-.12.12c-5.96,6.01-6.96,16.02-2.3,23.29,4.37,6.84,13.09,10.23,20.75,8.05,6.45-1.66,16.4-4.04,26.94-6.57,18.03-4.31,38.46-9.2,48.37-12.14l.15-.04c3.92-.98,6.92-4.16,8.04-8.49,1.09-4.23.02-8.48-2.79-11.11l-.07-.07c-2.24-2.22-4.96-3.25-8.28-3.13l-59.52,3.91c-2.86.24-5.9.23-8.84.22-.59,0-1.17,0-1.75,0Z"/>
        <g>
          <path class="st1" d="M853.7,153.53l31.16-4.03-3.72-22.26-13.78,1.71-2.6-18.6-15.51,1.85,2.02,18.74-8.25,1.02-1.72-18.81-15.69,1.87.23,3.89-4.55-3.38-10.48,1.25-6.63,6.92-6.85-5.31-19.82,2.36h0s-3.44.41-3.44.41l-6.23-8.21,8.1-12.61-77.73,9.2,7.63,10.06-8.1,12.61,12.34-1.46-7.07,42.27,18.02-2.33,1.5-11.06,5.08-.64,4.3-4.15-1.75,14.67,25.43-3.29h0s10.87-1.41,10.87-1.41h0s9.46-1.22,9.46-1.22h0s22.43-2.9,22.43-2.9l1.93-4.06-1.93,4.06,35.75-4.62h0s19.59-2.53,19.59-2.53h0Z"/>
          <g>
            <path class="st3" d="M716.64,166.35l-7.7.99,5.51-34.82,14.39-1.73,6.4,5.68-1.18,10.13-8.31,7.92-7.52.95-1.57,10.89ZM719.22,148.43l7.42-.92,1.33-10.16-7.28.89-1.47,10.2Z"/>
            <path class="st3" d="M735.78,163.9l.8-7.24,3.76-.48,2.12-20.59-3.61.44.72-6.53,14.22-1.71-.54,6.49-3.59.44-1.83,20.52,3.74-.47-.59,7.19-15.19,1.95Z"/>
            <path class="st3" d="M777.29,158.58l-7.49.96-6.43-16.58-1.09,17.54-7.54.97,2.58-34.1,7.06-.85,6.25,15.54.79-16.39,7.02-.84-1.16,33.75Z"/>
            <path class="st3" d="M781.02,158.1l.93-33.7,13.94-1.68,7.02,5.5.09,6.5-3.53,3.75,3.62,2.91.09,6.84-7.3,7.97-14.87,1.91ZM788.76,136.48l7.14-.88v-6.52s-7.05.86-7.05.86l-.09,6.54ZM788.57,150.07l7.32-.93v-6.86s-7.23.9-7.23.9l-.09,6.89Z"/>
            <path class="st3" d="M814.09,146.85l.24,6.98-7.36.94-.56-26.97,6.77-7.15,6.88-.83,7.24,5.44,1.65,26.7-7.3.94-.33-6.96-7.24.92ZM813.86,140.04l7.14-.89-.63-13.05-6.97.85.45,13.09Z"/>
            <path class="st3" d="M830.35,118.58l6.82-.82,2.14,25.89,7.15-.9-.64-6.7,7.04-.88,1.49,13.53-21.73,2.78-2.26-32.9Z"/>
            <path class="st3" d="M854.13,115.72l6.75-.81,3.34,25.59,7.06-.89-.96-6.62,6.95-.87,2.11,13.36-21.46,2.75-3.8-32.52Z"/>
          </g>
        </g>
        <g>
          <polyline class="st0" points="813.82 139.05 813.86 140.04 821 139.15 820.96 138.22"/>
          <polygon class="st0" points="716.64 166.35 718.21 155.46 725.73 154.51 731.85 148.68 711.5 151.07 708.93 167.34 716.64 166.35"/>
          <polygon class="st0" points="736.57 156.65 735.78 163.9 750.97 161.95 751.56 154.76 747.82 155.23 748.58 146.72 741.22 147.58 740.33 156.18 736.57 156.65"/>
          <polygon class="st0" points="762.29 160.5 763.25 144.99 755.93 145.85 754.75 161.46 762.29 160.5"/>
          <polygon class="st0" points="769.8 159.54 777.29 158.58 777.81 143.28 764.12 144.89 769.8 159.54"/>
          <path class="st0" d="M795.89,156.19l7.3-7.97-.09-6.84-1.16-.93-20.49,2.41-.42,15.24,14.87-1.91ZM788.66,143.19l7.23-.9v6.86l-7.32.93"/>
          <polygon class="st0" points="814.33 153.83 814.09 146.85 821.33 145.93 821.66 152.89 828.97 151.95 828.07 137.38 820.96 138.22 821 139.15 813.86 140.04 813.82 139.05 806.67 139.89 806.98 154.77 814.33 153.83"/>
          <polygon class="st0" points="854.34 148.7 852.85 135.17 845.81 136.05 846.46 142.75 839.31 143.66 838.69 136.13 831.61 136.97 832.61 151.48 854.34 148.7"/>
          <polygon class="st0" points="879.4 145.49 877.28 132.12 870.33 132.99 871.29 139.61 864.22 140.5 863.28 133.25 856.28 134.07 857.93 148.24 879.4 145.49"/>
        </g>
        <g>
          <path class="st1" d="M750.66,172.72l3.97-.77,3.07,15.87,3.97-.77-.77-3.97,3.97-.77,1.53,7.94-11.91,2.3-3.83-19.84Z"/>
          <path class="st1" d="M779.52,183.61l.77,3.97-11.91,2.3-3.83-19.84,11.91-2.3.77,3.97-7.94,1.53.77,3.97,5.95-1.15.77,3.97-5.95,1.15.77,3.97,7.94-1.53Z"/>
          <path class="st1" d="M785.48,182.46l.77,3.97-3.97.77-3.07-15.87,3.2-4.74,3.97-.77,4.74,3.2,3.07,15.87-3.97.77-.77-3.97-3.97.77ZM784.71,178.49l3.97-.77-1.53-7.94-3.97.77,1.53,7.94Z"/>
          <path class="st1" d="M802.57,175.04l-1.98.38-.77-3.97,5.95-1.15,2.3,11.91-7.94,1.53-4.74-3.2-2.3-11.91,3.2-4.74,5.95-1.15.77,3.97-5.95,1.15,2.3,11.91,3.97-.77-.77-3.97Z"/>
          <path class="st1" d="M806.22,161.99l3.97-.77,3.07,15.87,3.97-.77-3.07-15.87,3.97-.77,3.07,15.87-3.2,4.74-3.97.77-4.74-3.2-3.07-15.87Z"/>
          <path class="st1" d="M835.08,172.88l.77,3.97-11.91,2.3-3.83-19.84,11.91-2.3.77,3.97-7.94,1.53.77,3.97,5.95-1.15.77,3.97-5.95,1.15.77,3.97,7.94-1.53Z"/>
        </g>
        <g>
          <polygon class="st4" points="768.92 120.23 704.73 127.83 710.12 119.44 704.73 112.32 768.92 104.72 763.53 113.11 768.92 120.23"/>
          <g>
            <path class="st1" d="M713.44,114.08l2.02-.24v7.81l2.02-.24v-1.95l2.02-.24v3.91l-6.06.72v-9.77Z"/>
            <path class="st1" d="M722.53,120.81v1.95l-2.02.24v-7.81l2.02-2.19,2.02-.24,2.02,1.71v7.81l-2.02.24v-1.95l-2.02.24ZM722.53,118.86l2.02-.24v-3.91l-2.02.24v3.91Z"/>
            <path class="st1" d="M733.64,121.45l-2.02.24-2.02-4.64v4.88l-2.02.24v-9.77l2.02-.24,2.02,4.64v-4.88l2.02-.24v9.77Z"/>
            <path class="st1" d="M740.7,112.8v.98l-2.02.24v-.98l-2.02.24v1.95l2.02-.24,2.02,1.71v1.95l-2.02,2.19-2.02.24-2.02-1.71v-.98l2.02-.24v.98l2.02-.24v-1.95l-2.02.24-2.02-1.71v-1.95l2.02-2.19,2.02-.24,2.02,1.71Z"/>
            <path class="st1" d="M741.71,120.49v-1.95l1.01-.12v-5.86l-1.01.12v-1.95l4.04-.48v1.95l-1.01.12v5.86l1.01-.12v1.95l-4.04.48Z"/>
            <path class="st1" d="M752.82,119.18l-2.02.24-2.02-4.65v4.88l-2.02.24v-9.77l2.02-.24,2.02,4.64v-4.88l2.02-.24v9.77Z"/>
            <path class="st1" d="M757.87,114.67l-1.01.12v-1.95l3.03-.36v5.86l-4.04.48-2.02-1.71v-5.86l2.02-2.19,3.03-.36v1.95l-3.03.36v5.86l2.02-.24v-1.95Z"/>
          </g>
        </g>
        <g>
          <circle class="st2" cx="839.84" cy="151.48" r="13.19"/>
          <path class="st1" d="M839.84,167.07c-8.59,0-15.58-6.99-15.58-15.58s6.99-15.58,15.58-15.58,15.58,6.99,15.58,15.58-6.99,15.58-15.58,15.58ZM839.84,140.68c-5.96,0-10.81,4.85-10.81,10.81s4.85,10.81,10.81,10.81,10.81-4.85,10.81-10.81-4.85-10.81-10.81-10.81Z"/>
          <path class="st4" d="M839.84,159.26c4.29,0,7.77-3.48,7.77-7.78,0-1.33-.34-2.59-.93-3.69l-11.01,10.25c1.2.76,2.63,1.21,4.16,1.21Z"/>
        </g>
      </g>
    </g>
    <g>
      <polygon class="st1" points="761.52 397.65 766.86 414.48 776.48 416.54 766.86 400.21 761.52 397.65"/>
      <path class="st1" d="M747.77,387.9l13.75,24.89s-37.3-21.45-35.99-54.81l21.81,29.02"/>
      <path class="st4" d="M758.63,410.41c-10.21.22-17.1,10.52-13.4,20.03h0c4.47,11.5,9.7,18.66,21.71,15.8l79.14-15.52c9.5-2.26,15.27-11.91,12.78-21.35l-4.62-6.45-95.62,7.49Z"/>
      <path class="st2" d="M743.53,423.65l61.17,13.37-46.33,9.4s-11.89-.84-14.84-22.77Z"/>
      <path class="st1" d="M767.12,451.58c-8.57,0-16.94-4.41-21.76-11.97-6.36-9.94-4.99-23.65,3.17-31.93,7.51-8.28,18.13-8.25,27.5-8.22,2.92,0,5.68.02,8.3-.2l59.73-3.92c5.29-.2,9.82,1.52,13.47,5.11,4.66,4.38,6.48,11.25,4.75,17.95-1.74,6.73-6.73,11.9-13.04,13.51-10.12,3-30.6,7.9-48.67,12.22-10.51,2.51-20.43,4.89-26.73,6.51-2.21.63-4.47.93-6.72.93ZM774.26,406.46c-8.04,0-15.53.36-20.58,5.97l-.12.12c-5.96,6.01-6.96,16.02-2.3,23.29,4.37,6.84,13.09,10.23,20.75,8.05,6.45-1.66,16.4-4.04,26.94-6.57,18.03-4.31,38.46-9.2,48.37-12.14l.15-.04c3.92-.98,6.92-4.16,8.04-8.49,1.09-4.23.02-8.48-2.79-11.11l-.07-.07c-2.24-2.22-4.96-3.25-8.28-3.13l-59.52,3.91c-2.86.24-5.9.23-8.84.22-.59,0-1.17,0-1.75,0Z"/>
      <g>
        <path class="st1" d="M860.4,401.68l31.16-4.03-3.72-22.26-13.78,1.71-2.6-18.6-15.51,1.85,2.02,18.74-8.25,1.02-1.72-18.81-15.69,1.87.23,3.89-4.55-3.38-10.48,1.25-6.63,6.92-6.85-5.31-19.82,2.36h0s-3.44.41-3.44.41l-6.23-8.21,8.1-12.61-77.73,9.2,7.63,10.06-8.1,12.61,12.34-1.46-7.07,42.27,18.02-2.33,1.5-11.06,5.08-.64,4.3-4.15-1.75,14.67,25.43-3.29h0s10.87-1.41,10.87-1.41h0s9.46-1.22,9.46-1.22h0s22.43-2.9,22.43-2.9l1.93-4.06-1.93,4.06,35.75-4.62h0s19.59-2.53,19.59-2.53h0Z"/>
        <g>
          <path class="st3" d="M723.34,414.49l-7.7.99,5.51-34.82,14.39-1.73,6.4,5.68-1.18,10.13-8.31,7.92-7.52.95-1.57,10.89ZM725.93,396.58l7.42-.92,1.33-10.16-7.28.89-1.47,10.2Z"/>
          <path class="st3" d="M742.48,412.04l.8-7.24,3.76-.48,2.12-20.59-3.61.44.72-6.53,14.22-1.71-.54,6.49-3.59.44-1.83,20.52,3.74-.47-.59,7.19-15.19,1.95Z"/>
          <path class="st3" d="M784,406.72l-7.49.96-6.43-16.58-1.09,17.54-7.54.97,2.58-34.1,7.06-.85,6.25,15.54.79-16.39,7.02-.84-1.16,33.75Z"/>
          <path class="st3" d="M787.73,406.24l.93-33.7,13.94-1.68,7.02,5.5.09,6.5-3.53,3.75,3.62,2.91.09,6.84-7.3,7.97-14.87,1.91ZM795.46,384.62l7.14-.88v-6.52s-7.05.86-7.05.86l-.09,6.54ZM795.28,398.22l7.32-.93v-6.86s-7.23.9-7.23.9l-.09,6.89Z"/>
          <path class="st3" d="M820.8,394.99l.24,6.98-7.36.94-.56-26.97,6.77-7.15,6.88-.83,7.24,5.44,1.65,26.7-7.3.94-.33-6.96-7.24.92ZM820.57,388.19l7.14-.89-.63-13.05-6.97.85.45,13.09Z"/>
          <path class="st3" d="M837.06,366.73l6.82-.82,2.14,25.89,7.15-.9-.64-6.7,7.04-.88,1.49,13.53-21.73,2.78-2.26-32.9Z"/>
          <path class="st3" d="M860.84,363.87l6.75-.81,3.34,25.59,7.06-.89-.96-6.62,6.95-.87,2.11,13.36-21.46,2.75-3.8-32.52Z"/>
        </g>
      </g>
      <g>
        <polyline class="st0" points="820.53 387.2 820.57 388.19 827.71 387.3 827.66 386.36"/>
        <polygon class="st0" points="723.34 414.49 724.92 403.6 732.44 402.66 738.56 396.83 718.21 399.22 715.64 415.48 723.34 414.49"/>
        <polygon class="st0" points="743.28 404.8 742.48 412.04 757.67 410.09 758.27 402.9 754.53 403.37 755.29 394.86 747.92 395.73 747.04 404.32 743.28 404.8"/>
        <polygon class="st0" points="769 408.64 769.95 393.14 762.63 394 761.45 409.61 769 408.64"/>
        <polygon class="st0" points="776.51 407.68 784 406.72 784.52 391.43 770.83 393.04 776.51 407.68"/>
        <path class="st0" d="M802.6,404.34l7.3-7.97-.09-6.84-1.16-.93-20.49,2.41-.42,15.24,14.87-1.91ZM795.37,391.33l7.23-.9v6.86l-7.32.93"/>
        <polygon class="st0" points="821.04 401.97 820.8 394.99 828.04 394.08 828.37 401.03 835.68 400.1 834.77 385.53 827.66 386.36 827.71 387.3 820.57 388.19 820.53 387.2 813.38 388.04 813.68 402.92 821.04 401.97"/>
        <polygon class="st0" points="861.04 396.85 859.56 383.32 852.52 384.2 853.17 390.9 846.02 391.8 845.4 384.28 838.32 385.11 839.32 399.63 861.04 396.85"/>
        <polygon class="st0" points="886.1 393.63 883.99 380.27 877.04 381.14 877.99 387.76 870.93 388.65 869.98 381.39 862.99 382.21 864.64 396.38 886.1 393.63"/>
      </g>
      <g>
        <path class="st1" d="M757.37,420.87l3.97-.77,3.07,15.87,3.97-.77-.77-3.97,3.97-.77,1.53,7.94-11.91,2.3-3.83-19.84Z"/>
        <path class="st1" d="M786.23,431.76l.77,3.97-11.91,2.3-3.83-19.84,11.91-2.3.77,3.97-7.94,1.53.77,3.97,5.95-1.15.77,3.97-5.95,1.15.77,3.97,7.94-1.53Z"/>
        <path class="st1" d="M792.19,430.61l.77,3.97-3.97.77-3.07-15.87,3.2-4.74,3.97-.77,4.74,3.2,3.07,15.87-3.97.77-.77-3.97-3.97.77ZM791.42,426.64l3.97-.77-1.53-7.94-3.97.77,1.53,7.94Z"/>
        <path class="st1" d="M809.28,423.19l-1.98.38-.77-3.97,5.95-1.15,2.3,11.91-7.94,1.53-4.74-3.2-2.3-11.91,3.2-4.74,5.95-1.15.77,3.97-5.95,1.15,2.3,11.91,3.97-.77-.77-3.97Z"/>
        <path class="st1" d="M812.93,410.13l3.97-.77,3.07,15.87,3.97-.77-3.07-15.87,3.97-.77,3.07,15.87-3.2,4.74-3.97.77-4.74-3.2-3.07-15.87Z"/>
        <path class="st1" d="M841.79,421.03l.77,3.97-11.91,2.3-3.83-19.84,11.91-2.3.77,3.97-7.94,1.53.77,3.97,5.95-1.15.77,3.97-5.95,1.15.77,3.97,7.94-1.53Z"/>
      </g>
      <g>
        <polygon class="st4" points="775.63 368.38 711.43 375.98 716.83 367.58 711.43 360.47 775.63 352.86 770.24 361.26 775.63 368.38"/>
        <g>
          <path class="st1" d="M720.15,362.22l2.02-.24v7.81l2.02-.24v-1.95l2.02-.24v3.91l-6.06.72v-9.77Z"/>
          <path class="st1" d="M729.24,368.96v1.95l-2.02.24v-7.81l2.02-2.19,2.02-.24,2.02,1.71v7.81l-2.02.24v-1.95l-2.02.24ZM729.24,367l2.02-.24v-3.91l-2.02.24v3.91Z"/>
          <path class="st1" d="M740.34,369.6l-2.02.24-2.02-4.64v4.88l-2.02.24v-9.77l2.02-.24,2.02,4.64v-4.88l2.02-.24v9.77Z"/>
          <path class="st1" d="M747.41,360.95v.98l-2.02.24v-.98l-2.02.24v1.95l2.02-.24,2.02,1.71v1.95l-2.02,2.19-2.02.24-2.02-1.71v-.98l2.02-.24v.98l2.02-.24v-1.95l-2.02.24-2.02-1.71v-1.95l2.02-2.19,2.02-.24,2.02,1.71Z"/>
          <path class="st1" d="M748.42,368.64v-1.95l1.01-.12v-5.86l-1.01.12v-1.95l4.04-.48v1.95l-1.01.12v5.86l1.01-.12v1.95l-4.04.48Z"/>
          <path class="st1" d="M759.53,367.33l-2.02.24-2.02-4.65v4.88l-2.02.24v-9.77l2.02-.24,2.02,4.64v-4.88l2.02-.24v9.77Z"/>
          <path class="st1" d="M764.58,362.82l-1.01.12v-1.95l3.03-.36v5.86l-4.04.48-2.02-1.71v-5.86l2.02-2.19,3.03-.36v1.95l-3.03.36v5.86l2.02-.24v-1.95Z"/>
        </g>
      </g>
      <g>
        <circle class="st2" cx="846.55" cy="399.63" r="13.19"/>
        <path class="st1" d="M846.55,415.21c-8.59,0-15.58-6.99-15.58-15.58s6.99-15.58,15.58-15.58,15.58,6.99,15.58,15.58-6.99,15.58-15.58,15.58ZM846.55,388.82c-5.96,0-10.81,4.85-10.81,10.81s4.85,10.81,10.81,10.81,10.81-4.85,10.81-10.81-4.85-10.81-10.81-10.81Z"/>
        <path class="st4" d="M846.55,407.41c4.29,0,7.77-3.48,7.77-7.78,0-1.33-.34-2.59-.93-3.69l-11.01,10.25c1.2.76,2.63,1.21,4.16,1.21Z"/>
      </g>
    </g>
    <g>
      <path class="st4" d="M93.16,417.93l-10.77,1.11c7.55-8.2,7.55-20.82,0-29.02l-16.43-17.85,18.93-3.81c13.67-2.75,22.95-15.52,21.34-29.37l-2.23-19.18,17.56,8.05c12.68,5.81,27.69.93,34.53-11.22l9.47-16.83,9.47,16.83c6.84,12.15,21.85,17.03,34.53,11.22l17.56-8.05-1.77,15.28c-1.86,16.06,8.89,30.86,24.74,34.05l16.57,4.08-14.62,15.07c-7.55,8.2-7.29,26.38,6.8,35.23l-28.89,12.8-136.78-18.39Z"/>
      <polygon class="st1" points="132.5 445.78 137.85 462.61 147.47 464.68 137.85 448.34 132.5 445.78"/>
      <path class="st1" d="M118.75,436.03l13.75,24.89s-37.3-21.45-35.99-54.81l21.81,29.02"/>
      <path class="st6" d="M226.82,394.61c-8.7-6.64-8.04-19.93,1.25-25.69-11.13-20.17-34.5-34.06-61.54-34.06-24.95,0-46.77,11.83-58.74,29.49,6.64,7.03,5.4,18.72-3.21,24l-6.43,3.94c-.07,1.09-.1,2.18-.1,3.28,0,1.83.11,3.63.29,5.42l9.71.23c10.97.26,18.26,11.45,14.06,21.59l-5.8,14c1.13,1.08,2.3,2.12,3.51,3.12l12.66-8.75c9.03-6.24,21.51-1.47,24.07,9.2l3.75,15.62c1.4.11,2.81.18,4.23.22l5.32-15.16c3.64-10.36,16.54-13.83,24.88-6.7l12.06,10.31c1.23-.8,2.44-1.62,3.61-2.49l-4.51-15.09c-3.15-10.51,5.25-20.91,16.19-20.05l11.52.91c.56-2.38.94-4.82,1.17-7.3l-7.93-6.05Z"/>
      <ellipse class="st0" cx="166.53" cy="380.57" rx="53.87" ry="46.4"/>
      <path class="st2" d="M165.8,420.62c27.26,0,54.27-11.42,54.27-34.9,0-4.31-2.46-19.64-3.84-23.56l-73.72,53.44c6.94,3.21,14.87,5.03,23.3,5.03Z"/>
      <path class="st1" d="M166.53,331.2c-41.64,0-75.52,31.7-75.52,70.66s33.88,70.66,75.52,70.66,75.52-31.7,75.52-70.66-33.88-70.66-75.52-70.66ZM166.53,337.03c28.13,0,51.01,19.53,51.01,43.54s-22.88,43.54-51.01,43.54-51.01-19.53-51.01-43.54,22.88-43.54,51.01-43.54ZM113.85,362.34c-2.6,5.64-4.05,11.79-4.05,18.23,0,27.16,25.45,49.26,56.73,49.26s56.73-22.1,56.73-49.26c0-6.44-1.45-12.59-4.05-18.23,7.65,9.37,12.17,20.84,12.17,33.23,0,31.47-29.09,57.08-64.86,57.08s-64.86-25.6-64.86-57.08c0-12.39,4.52-23.87,12.17-33.23ZM166.53,466.6c-31.87,0-58.78-20.03-66.99-47.27,10.62,23.74,36.64,40.57,66.99,40.57s56.38-16.83,66.99-40.57c-8.22,27.23-35.13,47.27-66.99,47.27Z"/>
      <g>
        <path class="st1" d="M125.29,358.21c1.12-.06,2.05-.08,2.98-.18.33-.04.72-.2.95-.42.82-.77,1.6-1.57,2.36-2.38.28-.29.56-.46.97-.35,1.37.4,2.47-.08,3.61-.86,1.18-.8,2.15-1.71,3.07-2.74,1.77-1.99,3.65-3.88,5.48-5.79.12-.12.33-.25.49-.24,1.88.09,3.76.21,5.83.33-.59.47-1.05.84-1.51,1.21-.95.75-1.83,1.61-3.11,1.93-.14.04-.33.18-.37.3-.47,1.43-.92,2.88-1.42,4.48,1-.29,1.85-.5,2.68-.8.82-.29,1.55-.21,2.39-.03,1.42.3,2.44.93,2.88,2.24.32.95,1.16,1.14,2.04,1.18.39.02.84-.2,1.18-.42.57-.37,1.14-.42,1.79-.28.84.19,1.7.31,2.61.47.16-.46.26-.9.45-1.29.11-.23.33-.49.57-.57,4.03-1.35,8.06-2.66,12.06-4,.36-.12.6-.07.73.24.6,1.43,1.72,1.78,3.28,1.51.99-.17,2.03-.15,3.05-.15.28,0,.63.15.83.33.53.48.97,1.05,1.5,1.53,1.14,1.03,2.32,2.03,3.54,3.09-1.05.49-2.14,1.09-3.32,1.5-.44.15-1.08-.08-1.59-.25-.82-.27-1.38-.11-1.88.56-.49.64-1.1,1.21-1.69,1.77-.13.12-.45.16-.63.1-.32-.11-.64-.29-.9-.51-.91-.76-1.97-.83-3.07-.63-.27.05-.57.23-.73.44-.63.82-1.45,1.25-2.52,1.33-.22.02-.43.1-.65.11-1.44.08-2.56.56-3.06,1.95-.07.21-.32.4-.53.52-1.19.67-2.41,1.3-3.61,1.98-.34.19-.54.16-.76-.14-.42-.58-.87-1.13-1.34-1.74-1.36.68-2.7,1.33-4.01,2.02-.18.09-.29.35-.35.56-.71,2.16-1.42,4.34-2.1,6.53-.14.45-.33.67-.84.51-.19-.06-.4-.06-.6-.07-.48-.01-.71-.23-.74-.7-.03-.46-.2-.92-.2-1.38.01-1.78-1.15-2.92-2.34-4.02-1.03-.95-2.15-1.8-3.24-2.69-.18-.14-.39-.27-.61-.33-1.82-.43-3.64-.88-5.56-.87-.46,0-.98-.11-1.37-.32-1.55-.84-3.29-1.15-5.03-1.42-.52-.08-1.1,0-1.63.13-1.14.28-2.11.04-3.14-.39-1.41-.58-1.84-1.85-2.82-2.92Z"/>
        <path class="st1" d="M209.55,390.68c-1.13-1.82-1.82-3.79-2.48-5.76-.32-.94-.63-1.92-1.15-2.76-.57-.92-1.45-1.67-2.07-2.57-.74-1.06-1.73-1.5-2.97-1.53-.21,0-.5-.03-.63.09-.67.57-1.37,1.13-1.92,1.8-1.07,1.29-2.04,2.67-3.08,4.01-.3.38-1.25.38-1.48-.03-.51-.95-.93-1.93-1.47-3.07.98.21,1.33-.31,1.73-.76.27-.31.58-.59.82-.92.16-.23.31-.52.32-.8.07-2.1.08-4.19.17-6.26.03-.7-.12-1.28-.63-1.8-.62-.64-.92-1.37-.95-2.24-.04-1.06-.21-2.13-.28-3.18-.03-.47-.2-.69-.69-.83-3.86-1.05-7.7-2.12-11.54-3.16-.31-.08-.7-.05-1.01.05-.91.28-1.79.65-2.71.92-.64.19-.96.46-.8,1.14.08.34,0,.71.08,1.05.17.79-.12,1.32-.89,1.62-1.44.55-1.84,1.55-1.74,3,.06.87-.28,1.85-.75,2.62-.24.39-1.14.42-1.75.6-.23.07-.48.11-.71.19-.15.06-.34.14-.42.26-.37.6-.83,1.2-1.01,1.85-.2.73-.19,1.51-.25,2.3-.07.58-.08,1.47-.1,1.68-.08.72.04,1.52-.24,2.15-.4.9-1.1,1.69-1.65,2.54-.09.14-.16.4-.09.52.48.76.94,1.55,1.53,2.23.58.67.65.62.07,1.33-.06.07-.11.14-.17.21-.58.71-.69,2.19-.22,2.98,1.39,2.36,2.61,4.82,3.48,7.45.84,2.54,1.14,5.07.23,7.72-.76,2.22-1.27,4.55-1.89,6.85-.06.23-.1.47-.16.79.35-.04.57-.06.8-.09,6.71-1.06,13.41-2.12,20.09-3.17,3.88-.61,7.76-1.21,11.63-1.85.29-.05.66-.27.78-.52.91-1.88,1.78-3.77,2.6-5.67.15-.34.15-.8.05-1.17-.12-.48-.1-.83.29-1.14.59-.46.9-1.04.89-1.84,0-.32.27-.66.49-.94.25-.31.55-.59.88-.81.8-.54,1.17-1.25,1.07-2.25-.07-.69.05-1.38.04-2.07,0-.25-.03-.55-.17-.77Z"/>
      </g>
      <path class="st4" d="M129.62,458.54c-10.21.22-17.1,10.52-13.4,20.03h0c4.47,11.5,9.7,18.66,21.71,15.8l79.14-15.52c9.5-2.26,15.27-11.91,12.78-21.35l-4.62-6.45-95.62,7.49Z"/>
      <path class="st2" d="M114.52,471.79l61.17,13.37-46.33,9.4s-11.89-.84-14.84-22.77Z"/>
      <path class="st1" d="M138.11,499.71c-8.57,0-16.94-4.41-21.76-11.97-6.36-9.94-4.99-23.65,3.17-31.93,7.51-8.28,18.13-8.25,27.5-8.22,2.92,0,5.68.02,8.3-.2l59.73-3.92c5.29-.2,9.82,1.52,13.47,5.11,4.66,4.38,6.48,11.25,4.75,17.95-1.74,6.73-6.73,11.9-13.04,13.51-10.12,3-30.6,7.9-48.67,12.22-10.51,2.51-20.43,4.89-26.73,6.51-2.21.63-4.47.93-6.72.93ZM145.24,454.6c-8.04,0-15.53.36-20.58,5.97l-.12.12c-5.96,6.01-6.96,16.02-2.3,23.29,4.37,6.84,13.09,10.23,20.75,8.05,6.45-1.66,16.4-4.04,26.94-6.57,18.03-4.31,38.46-9.2,48.37-12.14l.15-.04c3.92-.98,6.92-4.16,8.04-8.49,1.09-4.23.02-8.48-2.79-11.11l-.07-.07c-2.24-2.22-4.96-3.25-8.28-3.13l-59.52,3.91c-2.86.24-5.9.23-8.84.22-.59,0-1.17,0-1.75,0Z"/>
      <g>
        <path class="st1" d="M231.39,449.81l31.16-4.03-3.72-22.26-13.78,1.71-2.6-18.6-15.51,1.85,2.02,18.74-8.25,1.02-1.72-18.81-15.69,1.87.23,3.89-4.55-3.38-10.48,1.25-6.63,6.92-6.85-5.31-19.82,2.36h0s-3.44.41-3.44.41l-6.23-8.21,8.1-12.61-77.73,9.2,7.63,10.06-8.1,12.61,12.34-1.46-7.07,42.27,18.02-2.33,1.5-11.06,5.08-.64,4.3-4.15-1.75,14.67,25.43-3.29h0s10.87-1.41,10.87-1.41h0s9.46-1.22,9.46-1.22h0s22.43-2.9,22.43-2.9l1.93-4.06-1.93,4.06,35.75-4.62h0s19.59-2.53,19.59-2.53h0Z"/>
        <g>
          <path class="st3" d="M94.33,462.63l-7.7.99,5.51-34.82,14.39-1.73,6.4,5.68-1.18,10.13-8.31,7.92-7.52.95-1.57,10.89ZM96.92,444.71l7.42-.92,1.33-10.16-7.28.89-1.47,10.2Z"/>
          <path class="st3" d="M113.47,460.17l.8-7.24,3.76-.48,2.12-20.59-3.61.44.72-6.53,14.22-1.71-.54,6.49-3.59.44-1.83,20.52,3.74-.47-.59,7.19-15.19,1.95Z"/>
          <path class="st3" d="M154.98,454.85l-7.49.96-6.43-16.58-1.09,17.54-7.54.97,2.58-34.1,7.06-.85,6.25,15.54.79-16.39,7.02-.84-1.16,33.75Z"/>
          <path class="st3" d="M158.72,454.37l.93-33.7,13.94-1.68,7.02,5.5.09,6.5-3.53,3.75,3.62,2.91.09,6.84-7.3,7.97-14.87,1.91ZM166.45,432.76l7.14-.88v-6.52s-7.05.86-7.05.86l-.09,6.54ZM166.26,446.35l7.32-.93v-6.86s-7.23.9-7.23.9l-.09,6.89Z"/>
          <path class="st3" d="M191.79,443.12l.24,6.98-7.36.94-.56-26.97,6.77-7.15,6.88-.83,7.24,5.44,1.65,26.7-7.3.94-.33-6.96-7.24.92ZM191.55,436.32l7.14-.89-.63-13.05-6.97.85.45,13.09Z"/>
          <path class="st3" d="M208.04,414.86l6.82-.82,2.14,25.89,7.15-.9-.64-6.7,7.04-.88,1.49,13.53-21.73,2.78-2.26-32.9Z"/>
          <path class="st3" d="M231.83,412l6.75-.81,3.34,25.59,7.06-.89-.96-6.62,6.95-.87,2.11,13.36-21.46,2.75-3.8-32.52Z"/>
        </g>
      </g>
      <g>
        <polyline class="st0" points="191.52 435.33 191.55 436.32 198.7 435.43 198.65 434.49"/>
        <polygon class="st0" points="94.33 462.63 95.9 451.73 103.43 450.79 109.55 444.96 89.2 447.35 86.63 463.61 94.33 462.63"/>
        <polygon class="st0" points="114.27 452.93 113.47 460.17 128.66 458.23 129.25 451.03 125.52 451.51 126.28 442.99 118.91 443.86 118.02 452.45 114.27 452.93"/>
        <polygon class="st0" points="139.98 456.78 140.94 441.27 133.62 442.13 132.44 457.74 139.98 456.78"/>
        <polygon class="st0" points="147.5 455.81 154.98 454.85 155.51 439.56 141.82 441.17 147.5 455.81"/>
        <path class="st0" d="M173.59,452.47l7.3-7.97-.09-6.84-1.16-.93-20.49,2.41-.42,15.24,14.87-1.91ZM166.36,439.47l7.23-.9v6.86l-7.32.93"/>
        <polygon class="st0" points="192.03 450.1 191.79 443.12 199.02 442.21 199.36 449.16 206.66 448.23 205.76 433.66 198.65 434.49 198.7 435.43 191.55 436.32 191.52 435.33 184.36 436.17 184.67 451.05 192.03 450.1"/>
        <polygon class="st0" points="232.03 444.98 230.54 431.45 223.51 432.33 224.15 439.03 217 439.93 216.38 432.41 209.31 433.24 210.31 447.76 232.03 444.98"/>
        <polygon class="st0" points="257.09 441.76 254.98 428.4 248.03 429.27 248.98 435.89 241.92 436.78 240.97 429.52 233.97 430.35 235.63 444.52 257.09 441.76"/>
      </g>
      <g>
        <path class="st1" d="M128.36,469l3.97-.77,3.07,15.87,3.97-.77-.77-3.97,3.97-.77,1.53,7.94-11.91,2.3-3.83-19.84Z"/>
        <path class="st1" d="M157.22,479.89l.77,3.97-11.91,2.3-3.83-19.84,11.91-2.3.77,3.97-7.94,1.53.77,3.97,5.95-1.15.77,3.97-5.95,1.15.77,3.97,7.94-1.53Z"/>
        <path class="st1" d="M163.17,478.74l.77,3.97-3.97.77-3.07-15.87,3.2-4.74,3.97-.77,4.74,3.2,3.07,15.87-3.97.77-.77-3.97-3.97.77ZM162.41,474.77l3.97-.77-1.53-7.94-3.97.77,1.53,7.94Z"/>
        <path class="st1" d="M180.26,471.32l-1.98.38-.77-3.97,5.95-1.15,2.3,11.91-7.94,1.53-4.74-3.2-2.3-11.91,3.2-4.74,5.95-1.15.77,3.97-5.95,1.15,2.3,11.91,3.97-.77-.77-3.97Z"/>
        <path class="st1" d="M183.91,458.27l3.97-.77,3.07,15.87,3.97-.77-3.07-15.87,3.97-.77,3.07,15.87-3.2,4.74-3.97.77-4.74-3.2-3.07-15.87Z"/>
        <path class="st1" d="M212.78,469.16l.77,3.97-11.91,2.3-3.83-19.84,11.91-2.3.77,3.97-7.94,1.53.77,3.97,5.95-1.15.77,3.97-5.95,1.15.77,3.97,7.94-1.53Z"/>
      </g>
      <polygon class="st0" points="187.22 388.28 189.82 393.55 195.64 394.4 191.43 398.5 192.42 404.29 187.22 401.55 182.02 404.29 183.02 398.5 178.81 394.4 184.62 393.55 187.22 388.28"/>
      <g>
        <polygon class="st4" points="146.62 416.51 82.42 424.11 87.82 415.71 82.42 408.6 146.62 401 141.22 409.39 146.62 416.51"/>
        <g>
          <path class="st1" d="M91.14,410.35l2.02-.24v7.81l2.02-.24v-1.95l2.02-.24v3.91l-6.06.72v-9.77Z"/>
          <path class="st1" d="M100.22,417.09v1.95l-2.02.24v-7.81l2.02-2.19,2.02-.24,2.02,1.71v7.81l-2.02.24v-1.95l-2.02.24ZM100.22,415.14l2.02-.24v-3.91l-2.02.24v3.91Z"/>
          <path class="st1" d="M111.33,417.73l-2.02.24-2.02-4.64v4.88l-2.02.24v-9.77l2.02-.24,2.02,4.64v-4.88l2.02-.24v9.77Z"/>
          <path class="st1" d="M118.4,409.08v.98l-2.02.24v-.98l-2.02.24v1.95l2.02-.24,2.02,1.71v1.95l-2.02,2.19-2.02.24-2.02-1.71v-.98l2.02-.24v.98l2.02-.24v-1.95l-2.02.24-2.02-1.71v-1.95l2.02-2.19,2.02-.24,2.02,1.71Z"/>
          <path class="st1" d="M119.41,416.77v-1.95l1.01-.12v-5.86l-1.01.12v-1.95l4.04-.48v1.95l-1.01.12v5.86l1.01-.12v1.95l-4.04.48Z"/>
          <path class="st1" d="M130.51,415.46l-2.02.24-2.02-4.65v4.88l-2.02.24v-9.77l2.02-.24,2.02,4.64v-4.88l2.02-.24v9.77Z"/>
          <path class="st1" d="M135.56,410.95l-1.01.12v-1.95l3.03-.36v5.86l-4.04.48-2.02-1.71v-5.86l2.02-2.19,3.03-.36v1.95l-3.03.36v5.86l2.02-.24v-1.95Z"/>
        </g>
      </g>
      <g>
        <circle class="st2" cx="217.54" cy="447.76" r="13.19"/>
        <path class="st1" d="M217.54,463.34c-8.59,0-15.58-6.99-15.58-15.58s6.99-15.58,15.58-15.58,15.58,6.99,15.58,15.58-6.99,15.58-15.58,15.58ZM217.54,436.95c-5.96,0-10.81,4.85-10.81,10.81s4.85,10.81,10.81,10.81,10.81-4.85,10.81-10.81-4.85-10.81-10.81-10.81Z"/>
        <path class="st4" d="M217.54,455.54c4.29,0,7.77-3.48,7.77-7.78,0-1.33-.34-2.59-.93-3.69l-11.01,10.25c1.2.76,2.63,1.21,4.16,1.21Z"/>
      </g>
    </g>
    <g>
      <path class="st4" d="M572.1,142.54c.13-5.26,1.89-10.16,4.92-13.45l14.62-15.07-16.57-4.08c-15.85-3.19-26.61-18-24.74-34.05l1.77-15.28-17.56,8.05c-12.68,5.81-27.69.93-34.53-11.22l-9.47-16.83-9.47,16.83c-6.84,12.15-21.85,17.03-34.53,11.22l-17.56-8.05,2.23,19.18c1.61,13.85-7.67,26.62-21.34,29.37l-18.93,3.81,16.43,17.85c3.1,3.36,4.9,7.47,5.46,11.72-.56,4.24-2.36,8.35-5.46,11.72l-16.43,17.85,18.93,3.81c13.67,2.75,22.95,15.52,21.34,29.37l-2.23,19.18,17.56-8.05c12.68-5.81,27.69-.93,34.53,11.22l9.47,16.83,9.47-16.83c6.84-12.15,21.85-17.03,34.53-11.22l17.56,8.05-1.77-15.28c-1.86-16.06,8.89-30.86,24.74-34.05l16.57-4.08-14.62-15.07c-3.03-3.29-4.8-8.19-4.92-13.45Z"/>
      <ellipse class="st4" cx="491.52" cy="150.88" rx="66.99" ry="59.22"/>
      <polygon class="st1" points="457.49 186.59 462.84 203.42 472.46 205.48 462.84 189.15 457.49 186.59"/>
      <path class="st1" d="M443.74,176.83l13.75,24.89s-37.3-21.45-35.99-54.81l21.81,29.02"/>
      <path class="st6" d="M551.81,135.42c-8.7-6.64-8.04-19.93,1.25-25.69-11.13-20.17-34.5-34.06-61.54-34.06-24.95,0-46.77,11.83-58.74,29.49,6.64,7.03,5.4,18.72-3.21,24l-6.43,3.94c-.07,1.09-.1,2.18-.1,3.28,0,1.83.11,3.63.29,5.42l9.71.23c10.97.26,18.26,11.45,14.06,21.59l-5.8,14c1.13,1.08,2.3,2.12,3.51,3.12l12.66-8.75c9.03-6.24,21.51-1.47,24.07,9.2l3.75,15.62c1.4.11,2.81.18,4.23.22l5.32-15.16c3.64-10.36,16.54-13.83,24.88-6.7l12.06,10.31c1.23-.8,2.44-1.62,3.61-2.49l-4.51-15.09c-3.15-10.51,5.25-20.91,16.19-20.05l11.52.91c.56-2.38.94-4.82,1.17-7.3l-7.93-6.05Z"/>
      <ellipse class="st0" cx="491.52" cy="121.38" rx="53.87" ry="46.4"/>
      <path class="st2" d="M490.79,161.43c27.26,0,54.27-11.42,54.27-34.9,0-4.31-2.46-19.64-3.84-23.56l-73.72,53.44c6.94,3.21,14.87,5.03,23.3,5.03Z"/>
      <path class="st1" d="M491.52,72.01c-41.64,0-75.52,31.7-75.52,70.66s33.88,70.66,75.52,70.66,75.52-31.7,75.52-70.66-33.88-70.66-75.52-70.66ZM491.52,77.84c28.13,0,51.01,19.53,51.01,43.54s-22.88,43.54-51.01,43.54-51.01-19.53-51.01-43.54,22.88-43.54,51.01-43.54ZM438.83,103.14c-2.6,5.64-4.05,11.79-4.05,18.23,0,27.16,25.45,49.26,56.73,49.26s56.73-22.1,56.73-49.26c0-6.44-1.45-12.59-4.05-18.23,7.65,9.37,12.17,20.84,12.17,33.23,0,31.47-29.09,57.08-64.86,57.08s-64.86-25.6-64.86-57.08c0-12.39,4.52-23.87,12.17-33.23ZM491.52,207.4c-31.87,0-58.78-20.03-66.99-47.27,10.62,23.74,36.64,40.57,66.99,40.57s56.38-16.83,66.99-40.57c-8.22,27.23-35.13,47.27-66.99,47.27Z"/>
      <g>
        <path class="st1" d="M450.28,99.02c1.12-.06,2.05-.08,2.98-.18.33-.04.72-.2.95-.42.82-.77,1.6-1.57,2.36-2.38.28-.29.56-.46.97-.35,1.37.4,2.47-.08,3.61-.86,1.18-.8,2.15-1.71,3.07-2.74,1.77-1.99,3.65-3.88,5.48-5.79.12-.12.33-.25.49-.24,1.88.09,3.76.21,5.83.33-.59.47-1.05.84-1.51,1.21-.95.75-1.83,1.61-3.11,1.93-.14.04-.33.18-.37.3-.47,1.43-.92,2.88-1.42,4.48,1-.29,1.85-.5,2.68-.8.82-.29,1.55-.21,2.39-.03,1.42.3,2.44.93,2.88,2.24.32.95,1.16,1.14,2.04,1.18.39.02.84-.2,1.18-.42.57-.37,1.14-.42,1.79-.28.84.19,1.7.31,2.61.47.16-.46.26-.9.45-1.29.11-.23.33-.49.57-.57,4.03-1.35,8.06-2.66,12.06-4,.36-.12.6-.07.73.24.6,1.43,1.72,1.78,3.28,1.51.99-.17,2.03-.15,3.05-.15.28,0,.63.15.83.33.53.48.97,1.05,1.5,1.53,1.14,1.03,2.32,2.03,3.54,3.09-1.05.49-2.14,1.09-3.32,1.5-.44.15-1.08-.08-1.59-.25-.82-.27-1.38-.11-1.88.56-.49.64-1.1,1.21-1.69,1.77-.13.12-.45.16-.63.1-.32-.11-.64-.29-.9-.51-.91-.76-1.97-.83-3.07-.63-.27.05-.57.23-.73.44-.63.82-1.45,1.25-2.52,1.33-.22.02-.43.1-.65.11-1.44.08-2.56.56-3.06,1.95-.07.21-.32.4-.53.52-1.19.67-2.41,1.3-3.61,1.98-.34.19-.54.16-.76-.14-.42-.58-.87-1.13-1.34-1.74-1.36.68-2.7,1.33-4.01,2.02-.18.09-.29.35-.35.56-.71,2.16-1.42,4.34-2.1,6.53-.14.45-.33.67-.84.51-.19-.06-.4-.06-.6-.07-.48-.01-.71-.23-.74-.7-.03-.46-.2-.92-.2-1.38.01-1.78-1.15-2.92-2.34-4.02-1.03-.95-2.15-1.8-3.24-2.69-.18-.14-.39-.27-.61-.33-1.82-.43-3.64-.88-5.56-.87-.46,0-.98-.11-1.37-.32-1.55-.84-3.29-1.15-5.03-1.42-.52-.08-1.1,0-1.63.13-1.14.28-2.11.04-3.14-.39-1.41-.58-1.84-1.85-2.82-2.92Z"/>
        <path class="st1" d="M534.54,131.49c-1.13-1.82-1.82-3.79-2.48-5.76-.32-.94-.63-1.92-1.15-2.76-.57-.92-1.45-1.67-2.07-2.57-.74-1.06-1.73-1.5-2.97-1.53-.21,0-.5-.03-.63.09-.67.57-1.37,1.13-1.92,1.8-1.07,1.29-2.04,2.67-3.08,4.01-.3.38-1.25.38-1.48-.03-.51-.95-.93-1.93-1.47-3.07.98.21,1.33-.31,1.73-.76.27-.31.58-.59.82-.92.16-.23.31-.52.32-.8.07-2.1.08-4.19.17-6.26.03-.7-.12-1.28-.63-1.8-.62-.64-.92-1.37-.95-2.24-.04-1.06-.21-2.13-.28-3.18-.03-.47-.2-.69-.69-.83-3.86-1.05-7.7-2.12-11.54-3.16-.31-.08-.7-.05-1.01.05-.91.28-1.79.65-2.71.92-.64.19-.96.46-.8,1.14.08.34,0,.71.08,1.05.17.79-.12,1.32-.89,1.62-1.44.55-1.84,1.55-1.74,3,.06.87-.28,1.85-.75,2.62-.24.39-1.14.42-1.75.6-.23.07-.48.11-.71.19-.15.06-.34.14-.42.26-.37.6-.83,1.2-1.01,1.85-.2.73-.19,1.51-.25,2.3-.07.58-.08,1.47-.1,1.68-.08.72.04,1.52-.24,2.15-.4.9-1.1,1.69-1.65,2.54-.09.14-.16.4-.09.52.48.76.94,1.55,1.53,2.23.58.67.65.62.07,1.33-.06.07-.11.14-.17.21-.58.71-.69,2.19-.22,2.98,1.39,2.36,2.61,4.82,3.48,7.45.84,2.54,1.14,5.07.23,7.72-.76,2.22-1.27,4.55-1.89,6.85-.06.23-.1.47-.16.79.35-.04.57-.06.8-.09,6.71-1.06,13.41-2.12,20.09-3.17,3.88-.61,7.76-1.21,11.63-1.85.29-.05.66-.27.78-.52.91-1.88,1.78-3.77,2.6-5.67.15-.34.15-.8.05-1.17-.12-.48-.1-.83.29-1.14.59-.46.9-1.04.89-1.84,0-.32.27-.66.49-.94.25-.31.55-.59.88-.81.8-.54,1.17-1.25,1.07-2.25-.07-.69.05-1.38.04-2.07,0-.25-.03-.55-.17-.77Z"/>
      </g>
      <polygon class="st0" points="512.21 129.09 514.81 134.36 520.63 135.2 516.42 139.3 517.41 145.09 512.21 142.36 507.01 145.09 508 139.3 503.8 135.2 509.61 134.36 512.21 129.09"/>
    </g>
    <g>
      <path class="st4" d="M571.96,401c.13-5.26,1.89-10.16,4.92-13.45l14.62-15.07-16.57-4.08c-15.85-3.19-26.61-18-24.74-34.05l1.77-15.28-17.56,8.05c-12.68,5.81-27.69.93-34.53-11.22l-9.47-16.83-9.47,16.83c-6.84,12.15-21.85,17.03-34.53,11.22l-17.56-8.05,2.23,19.18c1.61,13.85-7.67,26.62-21.34,29.37l-18.93,3.81,16.43,17.85c3.1,3.36,4.9,7.47,5.46,11.72-.56,4.24-2.36,8.35-5.46,11.72l-16.43,17.85,18.93,3.81c13.67,2.75,22.95,15.52,21.34,29.37l-2.23,19.18,17.56-8.05c12.68-5.81,27.69-.93,34.53,11.22l9.47,16.83,9.47-16.83c6.84-12.15,21.85-17.03,34.53-11.22l17.56,8.05-1.77-15.28c-1.86-16.06,8.89-30.86,24.74-34.05l16.57-4.08-14.62-15.07c-3.03-3.29-4.8-8.19-4.92-13.45Z"/>
      <ellipse class="st4" cx="491.39" cy="409.34" rx="66.99" ry="59.22"/>
      <polygon class="st1" points="457.36 445.05 462.7 461.87 472.32 463.94 462.7 447.61 457.36 445.05"/>
      <path class="st1" d="M443.61,435.29l13.75,24.89s-37.3-21.45-35.99-54.81l21.81,29.02"/>
      <path class="st6" d="M551.68,393.87c-8.7-6.64-8.04-19.93,1.25-25.69-11.13-20.17-34.5-34.06-61.54-34.06-24.95,0-46.77,11.83-58.74,29.49,6.64,7.03,5.4,18.72-3.21,24l-6.43,3.94c-.07,1.09-.1,2.18-.1,3.28,0,1.83.11,3.63.29,5.42l9.71.23c10.97.26,18.26,11.45,14.06,21.59l-5.8,14c1.13,1.08,2.3,2.12,3.51,3.12l12.66-8.75c9.03-6.24,21.51-1.47,24.07,9.2l3.75,15.62c1.4.11,2.81.18,4.23.22l5.32-15.16c3.64-10.36,16.54-13.83,24.88-6.7l12.06,10.31c1.23-.8,2.44-1.62,3.61-2.49l-4.51-15.09c-3.15-10.51,5.25-20.91,16.19-20.05l11.52.91c.56-2.38.94-4.82,1.17-7.3l-7.93-6.05Z"/>
      <ellipse class="st0" cx="491.39" cy="379.83" rx="53.87" ry="46.4"/>
      <path class="st2" d="M490.65,419.88c27.26,0,54.27-11.42,54.27-34.9,0-4.31-2.46-19.64-3.84-23.56l-73.72,53.44c6.94,3.21,14.87,5.03,23.3,5.03Z"/>
      <path class="st1" d="M491.39,330.47c-41.64,0-75.52,31.7-75.52,70.66s33.88,70.66,75.52,70.66,75.52-31.7,75.52-70.66-33.88-70.66-75.52-70.66ZM491.39,336.29c28.13,0,51.01,19.53,51.01,43.54s-22.88,43.54-51.01,43.54-51.01-19.53-51.01-43.54,22.88-43.54,51.01-43.54ZM438.7,361.6c-2.6,5.64-4.05,11.79-4.05,18.23,0,27.16,25.45,49.26,56.73,49.26s56.73-22.1,56.73-49.26c0-6.44-1.45-12.59-4.05-18.23,7.65,9.37,12.17,20.84,12.17,33.23,0,31.47-29.09,57.08-64.86,57.08s-64.86-25.6-64.86-57.08c0-12.39,4.52-23.87,12.17-33.23ZM491.39,465.86c-31.87,0-58.78-20.03-66.99-47.27,10.62,23.74,36.64,40.57,66.99,40.57s56.38-16.83,66.99-40.57c-8.22,27.23-35.13,47.27-66.99,47.27Z"/>
      <g>
        <path class="st1" d="M450.15,357.47c1.12-.06,2.05-.08,2.98-.18.33-.04.72-.2.95-.42.82-.77,1.6-1.57,2.36-2.38.28-.29.56-.46.97-.35,1.37.4,2.47-.08,3.61-.86,1.18-.8,2.15-1.71,3.07-2.74,1.77-1.99,3.65-3.88,5.48-5.79.12-.12.33-.25.49-.24,1.88.09,3.76.21,5.83.33-.59.47-1.05.84-1.51,1.21-.95.75-1.83,1.61-3.11,1.93-.14.04-.33.18-.37.3-.47,1.43-.92,2.88-1.42,4.48,1-.29,1.85-.5,2.68-.8.82-.29,1.55-.21,2.39-.03,1.42.3,2.44.93,2.88,2.24.32.95,1.16,1.14,2.04,1.18.39.02.84-.2,1.18-.42.57-.37,1.14-.42,1.79-.28.84.19,1.7.31,2.61.47.16-.46.26-.9.45-1.29.11-.23.33-.49.57-.57,4.03-1.35,8.06-2.66,12.06-4,.36-.12.6-.07.73.24.6,1.43,1.72,1.78,3.28,1.51.99-.17,2.03-.15,3.05-.15.28,0,.63.15.83.33.53.48.97,1.05,1.5,1.53,1.14,1.03,2.32,2.03,3.54,3.09-1.05.49-2.14,1.09-3.32,1.5-.44.15-1.08-.08-1.59-.25-.82-.27-1.38-.11-1.88.56-.49.64-1.1,1.21-1.69,1.77-.13.12-.45.16-.63.1-.32-.11-.64-.29-.9-.51-.91-.76-1.97-.83-3.07-.63-.27.05-.57.23-.73.44-.63.82-1.45,1.25-2.52,1.33-.22.02-.43.1-.65.11-1.44.08-2.56.56-3.06,1.95-.07.21-.32.4-.53.52-1.19.67-2.41,1.3-3.61,1.98-.34.19-.54.16-.76-.14-.42-.58-.87-1.13-1.34-1.74-1.36.68-2.7,1.33-4.01,2.02-.18.09-.29.35-.35.56-.71,2.16-1.42,4.34-2.1,6.53-.14.45-.33.67-.84.51-.19-.06-.4-.06-.6-.07-.48-.01-.71-.23-.74-.7-.03-.46-.2-.92-.2-1.38.01-1.78-1.15-2.92-2.34-4.02-1.03-.95-2.15-1.8-3.24-2.69-.18-.14-.39-.27-.61-.33-1.82-.43-3.64-.88-5.56-.87-.46,0-.98-.11-1.37-.32-1.55-.84-3.29-1.15-5.03-1.42-.52-.08-1.1,0-1.63.13-1.14.28-2.11.04-3.14-.39-1.41-.58-1.84-1.85-2.82-2.92Z"/>
        <path class="st1" d="M534.41,389.94c-1.13-1.82-1.82-3.79-2.48-5.76-.32-.94-.63-1.92-1.15-2.76-.57-.92-1.45-1.67-2.07-2.57-.74-1.06-1.73-1.5-2.97-1.53-.21,0-.5-.03-.63.09-.67.57-1.37,1.13-1.92,1.8-1.07,1.29-2.04,2.67-3.08,4.01-.3.38-1.25.38-1.48-.03-.51-.95-.93-1.93-1.47-3.07.98.21,1.33-.31,1.73-.76.27-.31.58-.59.82-.92.16-.23.31-.52.32-.8.07-2.1.08-4.19.17-6.26.03-.7-.12-1.28-.63-1.8-.62-.64-.92-1.37-.95-2.24-.04-1.06-.21-2.13-.28-3.18-.03-.47-.2-.69-.69-.83-3.86-1.05-7.7-2.12-11.54-3.16-.31-.08-.7-.05-1.01.05-.91.28-1.79.65-2.71.92-.64.19-.96.46-.8,1.14.08.34,0,.71.08,1.05.17.79-.12,1.32-.89,1.62-1.44.55-1.84,1.55-1.74,3,.06.87-.28,1.85-.75,2.62-.24.39-1.14.42-1.75.6-.23.07-.48.11-.71.19-.15.06-.34.14-.42.26-.37.6-.83,1.2-1.01,1.85-.2.73-.19,1.51-.25,2.3-.07.58-.08,1.47-.1,1.68-.08.72.04,1.52-.24,2.15-.4.9-1.1,1.69-1.65,2.54-.09.14-.16.4-.09.52.48.76.94,1.55,1.53,2.23.58.67.65.62.07,1.33-.06.07-.11.14-.17.21-.58.71-.69,2.19-.22,2.98,1.39,2.36,2.61,4.82,3.48,7.45.84,2.54,1.14,5.07.23,7.72-.76,2.22-1.27,4.55-1.89,6.85-.06.23-.1.47-.16.79.35-.04.57-.06.8-.09,6.71-1.06,13.41-2.12,20.09-3.17,3.88-.61,7.76-1.21,11.63-1.85.29-.05.66-.27.78-.52.91-1.88,1.78-3.77,2.6-5.67.15-.34.15-.8.05-1.17-.12-.48-.1-.83.29-1.14.59-.46.9-1.04.89-1.84,0-.32.27-.66.49-.94.25-.31.55-.59.88-.81.8-.54,1.17-1.25,1.07-2.25-.07-.69.05-1.38.04-2.07,0-.25-.03-.55-.17-.77Z"/>
      </g>
      <polygon class="st0" points="512.08 387.55 514.68 392.81 520.49 393.66 516.29 397.76 517.28 403.55 512.08 400.82 506.88 403.55 507.87 397.76 503.67 393.66 509.48 392.81 512.08 387.55"/>
    </g>
    <g>
      <path class="st1" d="M169.83,619.32c1.07-.08,1.9-.51,2.52-1.33.16-.21.46-.39.73-.44,1.11-.2,2.16-.13,3.07.63.26.22.58.4.9.51.18.06.51.02.63-.1.6-.56,1.2-1.13,1.69-1.77.51-.66,1.06-.82,1.88-.56.51.17,1.16.4,1.59.25,1.18-.41,2.27-1.01,3.32-1.5-1.22-1.06-2.4-2.06-3.54-3.09-.53-.48-.97-1.05-1.5-1.53-.2-.19-.55-.33-.83-.33-1.02,0-2.06-.02-3.05.15-1.56.27-2.68-.08-3.28-1.51-.13-.31-.37-.37-.73-.24-4,1.33-8.03,2.65-12.06,4-.24.08-.45.34-.57.57-.19.4-.3.83-.45,1.29-.91-.16-1.77-.28-2.61-.47-.65-.14-1.21-.09-1.79.28-.34.22-.79.44-1.18.42-.88-.04-1.71-.23-2.04-1.18-.44-1.3-1.46-1.93-2.88-2.24-.83-.18-1.57-.26-2.39.03-.82.3-1.68.5-2.68.8.51-1.6.95-3.05,1.42-4.48.04-.12.22-.27.37-.3,1.28-.32,2.15-1.18,3.11-1.93.46-.37.92-.74,1.51-1.21-2.07-.12-3.95-.24-5.83-.33-.16,0-.37.12-.49.24-1.83,1.91-3.7,3.8-5.48,5.79-.92,1.03-1.89,1.95-3.07,2.74-1.15.77-2.24,1.26-3.61.86-.4-.12-.69.05-.97.35-.77.81-1.54,1.61-2.36,2.38-.24.22-.62.39-.95.42-.93.1-1.86.12-2.98.18.98,1.06,1.41,2.33,2.82,2.92,1.03.43,2,.67,3.14.39.53-.13,1.11-.22,1.63-.13,1.74.27,3.48.58,5.03,1.42.39.21.91.32,1.37.32,1.92,0,3.74.44,5.56.87.22.05.44.18.61.33,1.09.88,2.21,1.74,3.24,2.69,1.19,1.09,2.36,2.24,2.34,4.02,0,.46.17.91.2,1.38.03.47.25.69.74.7.2,0,.41.01.6.07.51.16.7-.07.84-.51.69-2.2,1.39-4.37,2.1-6.53.07-.2.18-.47.35-.56,1.32-.69,2.65-1.34,4.01-2.02.47.61.92,1.16,1.34,1.74.22.31.42.33.76.14,1.2-.67,2.41-1.31,3.61-1.98.21-.12.46-.31.53-.52.5-1.39,1.62-1.87,3.06-1.95.22-.01.43-.1.65-.11Z"/>
      <path class="st1" d="M202.61,666.3c.29-.05.66-.27.78-.52.91-1.88,1.78-3.77,2.6-5.67.15-.34.15-.8.05-1.17-.12-.48-.1-.83.29-1.14.59-.46.9-1.04.89-1.84,0-.32.27-.66.49-.94.25-.31.55-.59.88-.81.8-.54,1.17-1.25,1.07-2.25-.07-.69.05-1.38.04-2.07,0-.25-.03-.55-.17-.77-1.13-1.82-1.82-3.79-2.48-5.76-.32-.94-.63-1.92-1.15-2.76-.57-.92-1.45-1.67-2.07-2.57-.74-1.06-1.73-1.5-2.97-1.53-.21,0-.5-.03-.63.09-.67.57-1.37,1.13-1.92,1.8-1.07,1.29-2.04,2.67-3.08,4.01-.3.38-1.25.38-1.48-.03-.51-.95-.93-1.93-1.47-3.07.98.21,1.33-.31,1.73-.76.27-.31.58-.59.82-.92.16-.23.31-.52.32-.8.07-2.1.08-4.19.17-6.26.03-.7-.12-1.28-.63-1.8-.62-.64-.92-1.37-.95-2.24-.04-1.06-.21-2.13-.28-3.18-.03-.47-.2-.69-.69-.83-3.86-1.05-7.7-2.12-11.54-3.16-.31-.08-.7-.05-1.01.05-.91.28-1.79.65-2.71.92-.64.19-.96.46-.8,1.14.08.34,0,.71.08,1.05.17.79-.12,1.32-.89,1.62-1.44.55-1.84,1.55-1.74,3,.06.87-.28,1.85-.75,2.62-.24.39-1.14.42-1.75.6-.23.07-.48.11-.71.19-.15.06-.34.14-.42.26-.37.6-.83,1.2-1.01,1.85-.2.73-.19,1.51-.25,2.3-.07.58-.08,1.47-.1,1.68-.08.72.04,1.52-.24,2.15-.4.9-1.1,1.69-1.65,2.54-.09.14-.16.4-.09.52.48.76.94,1.55,1.53,2.23.58.67.65.62.07,1.33-.06.07-.11.14-.17.21-.58.71-.69,2.19-.22,2.98,1.39,2.36,2.61,4.82,3.48,7.45.84,2.54,1.14,5.07.23,7.72-.76,2.22-1.27,4.55-1.89,6.85-.06.23-.1.47-.16.79.35-.04.57-.06.8-.09,6.71-1.06,13.41-2.12,20.09-3.17,3.88-.61,7.76-1.21,11.63-1.85ZM182.02,662.74l.99-5.79-4.21-4.1,5.81-.84,2.6-5.27,2.6,5.27,5.81.84-4.21,4.1.99,5.79-5.2-2.73-5.2,2.73Z"/>
      <polygon class="st1" points="166.45 691.21 173.59 690.33 173.59 683.82 166.54 684.67 166.45 691.21"/>
      <polygon class="st1" points="96.92 703.17 104.34 702.25 105.67 692.08 98.39 692.97 96.92 703.17"/>
      <polygon class="st1" points="191.1 681.68 191.55 694.78 198.7 693.88 198.07 680.84 191.1 681.68"/>
      <polygon class="st1" points="166.26 704.81 173.59 703.88 173.59 697.02 166.36 697.92 166.26 704.81"/>
      <polygon class="st1" points="138.59 737.83 139.36 741.8 135.39 742.56 132.33 726.69 128.36 727.45 132.19 747.3 144.1 745 142.56 737.06 138.59 737.83"/>
      <polygon class="st1" points="149.28 739.88 148.52 735.91 154.47 734.76 153.7 730.79 147.75 731.94 146.98 727.97 154.92 726.44 154.15 722.47 142.25 724.77 146.08 744.62 157.99 742.32 157.22 738.35 149.28 739.88"/>
      <path class="st1" d="M164.07,720.56l-3.97.77-3.2,4.74,3.07,15.87,3.97-.77-.77-3.97,3.97-.77.77,3.97,3.97-.77-3.07-15.87-4.73-3.2ZM162.41,733.23l-1.53-7.94,3.97-.77,1.53,7.94-3.97.77Z"/>
      <polygon class="st1" points="177.51 726.19 178.28 730.16 180.26 729.78 181.03 733.75 177.06 734.51 174.76 722.61 180.71 721.46 179.95 717.49 173.99 718.64 170.79 723.37 173.09 735.28 177.83 738.48 185.76 736.95 183.46 725.04 177.51 726.19"/>
      <polygon class="st1" points="191.85 715.19 194.92 731.06 190.95 731.83 187.88 715.96 183.91 716.72 186.98 732.6 191.72 735.8 195.69 735.03 198.89 730.3 195.82 714.42 191.85 715.19"/>
      <polygon class="st1" points="95.18 676.14 93.16 676.38 93.16 668.57 91.14 668.81 91.14 678.58 97.2 677.86 97.2 673.95 95.18 674.19 95.18 676.14"/>
      <path class="st1" d="M102.24,677.26l2.02-.24v-7.81l-2.02-1.71-2.02.24-2.02,2.19v7.81l2.02-.24v-1.95l2.02-.24v1.95ZM100.22,673.59v-3.91l2.02-.24v3.91l-2.02.24Z"/>
      <polygon class="st1" points="107.29 671.78 109.31 676.42 111.33 676.19 111.33 666.42 109.31 666.66 109.31 671.54 107.29 666.9 105.27 667.14 105.27 676.9 107.29 676.66 107.29 671.78"/>
      <polygon class="st1" points="116.38 675.59 118.4 673.4 118.4 671.44 116.38 669.73 114.36 669.97 114.36 668.01 116.38 667.77 116.38 668.75 118.4 668.51 118.4 667.54 116.38 665.82 114.36 666.06 112.34 668.25 112.34 670.21 114.36 671.92 116.38 671.68 116.38 673.63 114.36 673.87 114.36 672.9 112.34 673.14 112.34 674.11 114.36 675.83 116.38 675.59"/>
      <polygon class="st1" points="123.45 672.8 122.44 672.92 122.44 667.06 123.45 666.94 123.45 664.98 119.41 665.46 119.41 667.41 120.42 667.3 120.42 673.16 119.41 673.28 119.41 675.23 123.45 674.75 123.45 672.8"/>
      <polygon class="st1" points="126.48 669.51 128.5 674.15 130.51 673.91 130.51 664.15 128.5 664.39 128.5 669.27 126.48 664.62 124.46 664.86 124.46 674.63 126.48 674.39 126.48 669.51"/>
      <polygon class="st1" points="137.58 673.08 137.58 667.22 134.55 667.58 134.55 669.53 135.56 669.41 135.56 671.36 133.54 671.6 133.54 665.74 136.57 665.38 136.57 663.43 133.54 663.79 131.52 665.98 131.52 671.84 133.54 673.56 137.58 673.08"/>
      <path class="st1" d="M225.31,706.22c0-1.33-.34-2.59-.93-3.69l-11.01,10.25c1.2.76,2.63,1.21,4.16,1.21,4.29,0,7.77-3.48,7.77-7.78Z"/>
      <path class="st1" d="M263.58,704.1l-3.96-23.4c-6.04-3.79-9.88-9.74-10.82-16.75-.83-6.19.83-12.4,4.3-16.17l16.44-16.95-19.17-4.72c-14.96-3.01-25.31-17.25-23.55-32.41l2.08-17.92-19.98,9.16c-11.87,5.44-26.19.79-32.6-10.59l-10.78-19.15-10.78,19.15c-6.41,11.38-20.72,16.03-32.6,10.59l-19.98-9.16,2.53,21.83c1.51,12.97-7.34,25.15-20.15,27.73l-21.54,4.34,18.23,19.81c3.49,3.79,5.22,8.66,5.21,13.53l-10.6,1.26,7.63,10.06-8.1,12.61,12.34-1.46-7.07,42.27,18.02-2.33,1.5-11.06,5.08-.64,4.3-4.15-1.75,14.67,6.01-.78c-2.58,7.38-1.86,15.94,2.48,22.74,4.82,7.56,13.19,11.97,21.76,11.97,2.25,0,4.51-.3,6.72-.93,6.31-1.63,16.23-4,26.73-6.51,18.07-4.32,38.55-9.22,48.67-12.22,6.31-1.61,11.3-6.78,13.04-13.51,1.18-4.58.7-9.24-1.22-13.13.47-1.2.8-2.47.95-3.8l30.58-3.96ZM223.61,691.87l-.1-1.08,7.04-.88,1.06,9.65c-1.63-3.44-4.48-6.2-7.99-7.69ZM192.03,708.56l-7.36.94-.56-26.97,6.77-7.15,6.88-.83,7.24,5.44.98,15.81c-2.5,2.76-4.03,6.41-4.03,10.42,0,.36.03.71.05,1.06l-2.65.34-.33-6.96-7.24.92.24,6.98ZM180.79,696.12l.09,6.84-7.3,7.97-14.87,1.91.93-33.7,13.94-1.68,7.02,5.5.09,6.5-3.53,3.75,3.62,2.91ZM175.01,673.12l-19.82,2.36h0s-3.44.41-3.44.41l-6.23-8.21,8.1-12.61-32.44,3.84c-3.61-5.97-5.66-12.72-5.66-19.89,0-24.01,22.88-43.54,51.01-43.54s51.01,19.53,51.01,43.54c0,12.86-6.59,24.42-17.01,32.4l-1.56-1.16-10.48,1.25-6.63,6.92-6.85-5.31ZM135.02,682.09l7.06-.85,6.25,15.54.79-16.39,7.02-.84-1.16,33.75-7.49.96-6.43-16.58-1.09,17.54-7.54.97,2.58-34.1ZM101.67,654.03c0-12.39,4.52-23.87,12.17-33.23-2.6,5.64-4.05,11.79-4.05,18.23,0,7.36,1.88,14.34,5.23,20.62l-12.82,1.52c-.34-2.34-.53-4.72-.53-7.13ZM219.22,620.79c7.65,9.37,12.17,20.84,12.17,33.23,0,4.32-.55,8.52-1.59,12.56l-2.86.34,2.02,18.74-8.25,1.02-1.72-18.81-7.26.87c7.23-8.27,11.54-18.56,11.54-29.72,0-6.44-1.45-12.59-4.05-18.23ZM209.39,692.96l-1.35-19.65,6.82-.82,1.5,18.2c-2.54.19-4.92.99-6.97,2.26ZM206.73,706.22c0-5.96,4.85-10.81,10.81-10.81s10.81,4.85,10.81,10.81-4.85,10.81-10.81,10.81-10.81-4.85-10.81-10.81ZM235.63,702.97l-3.8-32.52,6.75-.81,3.34,25.59,7.06-.89-.96-6.62,6.95-.87,2.11,13.36-21.46,2.75ZM83.49,647.46l-14.62-15.89,16.32-3.28c14.32-2.88,24.22-16.5,22.53-31.02l-1.92-16.54,15.13,6.94c13.28,6.09,29.29.88,36.46-11.85l8.17-14.51,8.17,14.51c7.17,12.73,23.18,17.93,36.46,11.85l15.13-6.94-1.47,12.63c-1.94,16.7,9.45,32.38,25.87,35.68l14.03,3.45-12.83,13.22c-4.08,4.44-6.04,11.57-5.09,18.63.91,6.8,4.24,12.71,9.49,16.95l-10.41,1.45-2.47-17.67-.6.07c.12-1.6.2-3.21.2-4.83,0-38.96-33.88-70.66-75.52-70.66s-75.52,31.7-75.52,70.66c0,.72.03,1.44.05,2.16l-1.6.19c-.07-5.48-2.04-10.94-5.97-15.21ZM82.42,682.57l5.4-8.39-5.4-7.12,17.22-2.04,3.18-.38h0l43.8-5.19-5.4,8.39,5.4,7.12-11.61,1.37-4.72.56h0l-21.79,2.58h0l-7.72.91h0l-18.37,2.17ZM111.74,701.33l-8.31,7.92-7.52.95-1.57,10.89-7.7.99,5.51-34.82,14.39-1.73,6.4,5.68-1.18,10.13ZM114.27,711.39l3.76-.48,2.12-20.59-3.61.44.72-6.53,14.22-1.71-.54,6.49-3.59.44-1.83,20.52,3.74-.47-.59,7.19-15.19,1.95.8-7.24ZM226.49,723.24c-1.12,4.33-4.13,7.51-8.04,8.49l-.15.04c-9.91,2.94-30.35,7.83-48.37,12.14-10.54,2.52-20.49,4.9-26.94,6.57-7.66,2.18-16.39-1.2-20.75-8.05-3.89-6.07-3.82-14.06-.22-20.02l11.26-1.46h0s10.87-1.41,10.87-1.41h0s9.46-1.22,9.46-1.22h0s22.43-2.9,22.43-2.9l27.01-3.49c.14.34.29.68.45,1.01l-5.7,1.1,3.83,19.84,11.91-2.3-.77-3.97-7.94,1.53-.77-3.97,5.95-1.15-.77-3.97-5.95,1.15-.77-3.97,3.4-.66c2.86,3.19,6.99,5.21,11.6,5.21,3.48,0,6.7-1.16,9.29-3.1.16,1.47.06,3.01-.34,4.55Z"/>
    </g>
    <g>
      <polygon class="st1" points="786.5 639.2 779.45 640.06 779.36 646.6 786.5 645.72 786.5 639.2"/>
      <polygon class="st1" points="709.83 658.55 717.25 657.63 718.58 647.47 711.3 648.35 709.83 658.55"/>
      <polygon class="st1" points="811.61 649.27 810.98 636.22 804.01 637.07 804.46 650.16 811.61 649.27"/>
      <polygon class="st1" points="786.5 652.4 779.27 653.31 779.17 660.19 786.5 659.27 786.5 652.4"/>
      <polygon class="st1" points="751.5 693.21 752.27 697.18 748.3 697.95 745.24 682.07 741.27 682.84 745.1 702.68 757.01 700.38 755.47 692.44 751.5 693.21"/>
      <polygon class="st1" points="762.19 695.26 761.43 691.29 767.38 690.14 766.61 686.18 760.66 687.33 759.89 683.36 767.83 681.82 767.06 677.86 755.16 680.16 758.99 700 770.9 697.7 770.13 693.73 762.19 695.26"/>
      <path class="st1" d="M776.98,675.94l-3.97.77-3.2,4.74,3.07,15.87,3.97-.77-.77-3.97,3.97-.77.77,3.97,3.97-.77-3.07-15.87-4.74-3.2ZM775.32,688.61l-1.53-7.94,3.97-.77,1.53,7.94-3.97.77Z"/>
      <polygon class="st1" points="790.42 681.58 791.19 685.55 793.17 685.16 793.94 689.13 789.97 689.9 787.67 677.99 793.62 676.84 792.86 672.87 786.9 674.02 783.7 678.76 786 690.66 790.74 693.87 798.67 692.33 796.37 680.43 790.42 681.58"/>
      <polygon class="st1" points="804.76 670.57 807.83 686.45 803.86 687.21 800.79 671.34 796.82 672.11 799.89 687.98 804.63 691.18 808.6 690.42 811.8 685.68 808.73 669.81 804.76 670.57"/>
      <polygon class="st1" points="708.09 631.53 706.07 631.77 706.07 623.95 704.05 624.19 704.05 633.96 710.11 633.24 710.11 629.33 708.09 629.57 708.09 631.53"/>
      <path class="st1" d="M713.13,623.12l-2.02,2.19v7.81l2.02-.24v-1.95l2.02-.24v1.95l2.02-.24v-7.81l-2.02-1.71-2.02.24ZM715.15,628.74l-2.02.24v-3.91l2.02-.24v3.91Z"/>
      <polygon class="st1" points="722.22 626.92 720.2 622.28 718.18 622.52 718.18 632.29 720.2 632.05 720.2 627.16 722.22 631.81 724.24 631.57 724.24 621.8 722.22 622.04 722.22 626.92"/>
      <polygon class="st1" points="727.27 621.44 725.25 623.64 725.25 625.59 727.27 627.3 729.29 627.06 729.29 629.02 727.27 629.26 727.27 628.28 725.25 628.52 725.25 629.5 727.27 631.21 729.29 630.97 731.31 628.78 731.31 626.82 729.29 625.11 727.27 625.35 727.27 623.4 729.29 623.16 729.29 624.13 731.31 623.9 731.31 622.92 729.29 621.2 727.27 621.44"/>
      <polygon class="st1" points="732.32 622.8 733.33 622.68 733.33 628.54 732.32 628.66 732.32 630.61 736.36 630.13 736.36 628.18 735.35 628.3 735.35 622.44 736.36 622.32 736.36 620.37 732.32 620.85 732.32 622.8"/>
      <polygon class="st1" points="741.4 624.65 739.39 620.01 737.37 620.25 737.37 630.01 739.39 629.78 739.39 624.89 741.4 629.54 743.42 629.3 743.42 619.53 741.4 619.77 741.4 624.65"/>
      <polygon class="st1" points="747.46 624.91 748.47 624.79 748.47 626.75 746.45 626.99 746.45 621.13 749.48 620.77 749.48 618.81 746.45 619.17 744.43 621.36 744.43 627.23 746.45 628.94 750.49 628.46 750.49 622.6 747.46 622.96 747.46 624.91"/>
      <path class="st1" d="M845.91,663.44l30.58-3.96-3.96-23.4-14.71,2.05-2.47-17.67-15.51,1.85,2.02,18.74-8.25,1.02-1.72-18.81-15.69,1.87.23,3.89-4.55-3.38-10.48,1.25-6.63,6.92-6.85-5.31-19.82,2.36h0s-3.44.41-3.44.41l-6.23-8.21,8.1-12.61-77.73,9.2,7.63,10.06-8.1,12.61,12.34-1.46-7.07,42.27,18.02-2.33,1.5-11.06,5.08-.64,4.3-4.15-1.75,14.67,6.01-.78c-2.58,7.38-1.86,15.94,2.48,22.74,4.82,7.56,13.19,11.97,21.76,11.97,2.25,0,4.51-.3,6.72-.93,6.31-1.63,16.23-4,26.73-6.51,18.07-4.32,38.55-9.22,48.67-12.22,6.31-1.61,11.3-6.78,13.04-13.51,1.18-4.58.7-9.24-1.22-13.13.47-1.2.8-2.47.95-3.8ZM819.64,661.6c0-5.96,4.85-10.81,10.81-10.81s10.81,4.85,10.81,10.81-4.85,10.81-10.81,10.81-10.81-4.85-10.81-10.81ZM851.48,625.03l3.34,25.59,7.06-.89-.96-6.62,6.95-.87,2.11,13.36-21.46,2.75-3.8-32.52,6.75-.81ZM843.45,645.29l1.06,9.65c-1.63-3.44-4.48-6.2-7.99-7.69l-.1-1.08,7.04-.88ZM827.78,627.88l1.5,18.2c-2.54.19-4.92.99-6.97,2.26l-1.35-19.65,6.82-.82ZM803.8,630.76l6.88-.83,7.24,5.44.98,15.81c-2.5,2.76-4.03,6.41-4.03,10.42,0,.36.03.71.05,1.06l-2.65.34-.33-6.96-7.24.92.24,6.98-7.36.94-.56-26.97,6.77-7.15ZM772.55,634.52l13.94-1.68,7.02,5.5.09,6.5-3.53,3.75,3.62,2.91.09,6.84-7.3,7.97-14.87,1.91.93-33.7ZM762.04,635.78l7.02-.84-1.16,33.75-7.49.96-6.43-16.58-1.09,17.54-7.54.97,2.58-34.1,7.06-.85,6.25,15.54.79-16.39ZM695.33,637.95l5.4-8.39-5.4-7.12,64.2-7.6-5.4,8.39,5.4,7.12-64.2,7.6ZM724.65,656.71l-8.31,7.92-7.52.95-1.57,10.89-7.7.99,5.51-34.82,14.39-1.73,6.4,5.68-1.18,10.13ZM727.18,666.77l3.76-.48,2.12-20.59-3.61.44.72-6.53,14.22-1.71-.54,6.49-3.59.44-1.83,20.52,3.74-.47-.59,7.19-15.19,1.95.8-7.24ZM839.4,678.63c-1.12,4.33-4.13,7.51-8.04,8.49l-.15.04c-9.91,2.94-30.35,7.83-48.37,12.14-10.54,2.52-20.49,4.9-26.94,6.57-7.66,2.18-16.39-1.2-20.75-8.05-3.89-6.07-3.82-14.06-.22-20.02l11.26-1.46h0s10.87-1.41,10.87-1.41h0s9.46-1.22,9.46-1.22h0s22.43-2.9,22.43-2.9l27.01-3.49c.14.34.29.68.45,1.01l-5.7,1.1,3.83,19.84,11.91-2.3-.77-3.97-7.94,1.53-.77-3.97,5.95-1.15-.77-3.97-5.95,1.15-.77-3.97,3.4-.66c2.86,3.19,6.99,5.21,11.6,5.21,3.48,0,6.7-1.16,9.29-3.1.16,1.47.06,3.01-.34,4.55Z"/>
      <path class="st1" d="M838.22,661.6c0-1.33-.34-2.59-.93-3.69l-11.01,10.25c1.2.76,2.63,1.21,4.16,1.21,4.29,0,7.77-3.48,7.77-7.78Z"/>
    </g>
    <g>
      <path class="st1" d="M573.46,659.45c.12-4.91,1.77-9.44,4.5-12.41l16.44-16.95-19.17-4.72c-14.96-3.01-25.31-17.25-23.55-32.41l2.08-17.92-19.98,9.16c-11.87,5.44-26.19.79-32.6-10.59l-10.78-19.15-10.78,19.15c-6.41,11.38-20.72,16.03-32.6,10.59l-19.98-9.16,2.53,21.83c1.51,12.97-7.34,25.15-20.15,27.73l-21.54,4.34,18.23,19.81c2.74,2.97,4.48,6.67,5.05,10.7-.57,4.03-2.31,7.73-5.05,10.7l-18.23,19.81,21.54,4.33c12.8,2.58,21.65,14.76,20.15,27.73l-2.53,21.83,19.98-9.16c11.87-5.44,26.19-.79,32.6,10.59l10.78,19.15,10.78-19.15c6.41-11.38,20.72-16.03,32.6-10.59l19.98,9.16-2.08-17.92c-1.76-15.16,8.58-29.4,23.61-32.42l19.11-4.7-16.42-16.92c-2.75-2.99-4.4-7.52-4.53-12.43ZM574.64,690.58c-16.48,3.32-27.87,19-25.94,35.7l1.47,12.63-15.13-6.94c-13.28-6.09-29.29-.88-36.46,11.85l-8.17,14.51-8.17-14.51c-5.14-9.13-14.83-14.39-24.8-14.39-3.93,0-7.91.82-11.66,2.54l-15.13,6.94,1.92-16.54c1.68-14.51-8.21-28.13-22.53-31.02l-16.32-3.28,14.62-15.89c3.2-3.48,5.22-7.81,5.84-12.54l.03-.19-.03-.19c-.62-4.72-2.64-9.06-5.84-12.54l-14.62-15.89,16.32-3.28c14.32-2.88,24.22-16.5,22.53-31.02l-1.92-16.54,15.13,6.94c13.28,6.09,29.29.88,36.46-11.85l8.17-14.51,8.17,14.51c7.17,12.73,23.18,17.93,36.46,11.85l15.13-6.94-1.47,12.63c-1.94,16.7,9.45,32.38,25.87,35.68l14.03,3.45-12.83,13.22c-3.25,3.53-5.18,8.79-5.32,14.43v.04s0,.04,0,.04c.13,5.64,2.07,10.9,5.35,14.46l12.8,13.2-13.97,3.44Z"/>
      <path class="st1" d="M491.39,588.92c-41.64,0-75.52,31.7-75.52,70.66s33.88,70.66,75.52,70.66,75.52-31.7,75.52-70.66-33.88-70.66-75.52-70.66ZM529.77,685.11l3.5,11.71c-1.18.88-2.4,1.73-3.66,2.54l-9.4-8.03c-4.17-3.56-9.82-4.84-15.12-3.41-5.3,1.43-9.54,5.37-11.36,10.54l-4.17,11.87c-1.44-.03-2.87-.1-4.29-.22l-2.93-12.23c-1.28-5.33-5.1-9.69-10.22-11.65-5.12-1.96-10.87-1.27-15.39,1.85l-9.77,6.75c-1.23-1.02-2.42-2.07-3.56-3.16l4.46-10.75c1.37-3.29,1.61-6.88.8-10.26,10.41,10.34,25.69,16.89,42.71,16.89,15.06,0,28.75-5.13,38.92-13.47-1.41,3.46-1.63,7.34-.53,11.02ZM436.45,626.05c-.26-.6-.57-1.17-.9-1.74.98-1.46,2.03-2.88,3.15-4.26-.89,1.94-1.64,3.94-2.25,5.99ZM440.45,659.95c-2.28-1.24-4.85-1.95-7.53-2.01l-6.17-.14c-.13-1.49-.22-2.99-.22-4.51s.07-2.94.19-4.38l3.23-1.98c1.97-1.21,3.62-2.79,4.91-4.63.59,6.29,2.53,12.24,5.59,17.64ZM432.87,659.94c4.9.12,9.23,2.53,11.91,6.64s3.13,9.05,1.25,13.57l-4.13,9.97c-8.07-8.39-13.44-18.84-14.93-30.32l5.91.14ZM491.39,681.83c-28.13,0-51.01-19.53-51.01-43.54s22.88-43.54,51.01-43.54,51.01,19.53,51.01,43.54-22.88,43.54-51.01,43.54ZM434.32,626.23c.55,1.1.97,2.25,1.23,3.45-.57,2.8-.89,5.67-.89,8.61,0,.1,0,.19,0,.29-1.18,2.72-3.15,5.05-5.76,6.65l-1.91,1.17c.99-7.22,3.54-14.03,7.32-20.16ZM450.52,706.26c2.93,1.81,6.03,3.43,9.25,4.84l2.28,7.16c-2.32-1.01-4.58-2.13-6.76-3.37l-4.77-8.63ZM448.61,696.14l9.28-6.41c4.03-2.78,8.96-3.38,13.53-1.63,4.57,1.75,7.85,5.48,8.99,10.24l2.77,11.55c-13.15-1.47-25.09-6.41-34.57-13.76ZM495.63,699.12c1.62-4.62,5.26-8,9.99-9.27,4.73-1.27,9.57-.18,13.3,3l8.92,7.62c-10.32,6.19-22.76,9.84-36.15,9.89l3.95-11.24ZM534.97,695.52l-3.29-10.99c-1.4-4.69-.44-9.57,2.63-13.37s7.64-5.78,12.52-5.39l7.66.6c-3.05,11.41-9.99,21.51-19.53,29.14ZM555,664.41l-8-.63c-2.83-.23-5.61.28-8.12,1.41,3.78-5.01,6.54-10.66,8.01-16.71,1.06,1.76,2.47,3.34,4.18,4.65l5.02,3.83c-.18,2.53-.55,5.02-1.1,7.45ZM544.07,620.06c2.06,2.52,3.89,5.21,5.47,8.02-.79.78-1.51,1.62-2.13,2.54-.67-3.66-1.79-7.2-3.34-10.55ZM491.39,724.32c-6.75,0-13.28-.91-19.45-2.58l-4.59-7.8c7.52,2.38,15.62,3.68,24.04,3.68,30.36,0,56.38-16.83,66.99-40.57-8.22,27.23-35.13,47.27-66.99,47.27ZM556.21,654.53l-3.92-2.99c-2.19-1.67-3.79-3.85-4.74-6.3.37-2.27.58-4.59.58-6.95,0-1.52-.09-3.02-.24-4.5.66-1.44,1.55-2.75,2.65-3.91,3.67,7.15,5.72,15.07,5.72,23.4,0,.42-.03.82-.04,1.24Z"/>
      <path class="st1" d="M494.69,618.58c1.07-.08,1.9-.51,2.52-1.33.16-.21.46-.39.73-.44,1.11-.2,2.16-.13,3.07.63.26.22.58.4.9.51.18.06.51.02.63-.1.6-.56,1.2-1.13,1.69-1.77.51-.66,1.06-.82,1.88-.56.51.17,1.16.4,1.59.25,1.18-.41,2.27-1.01,3.32-1.5-1.22-1.06-2.4-2.06-3.54-3.09-.53-.48-.97-1.05-1.5-1.53-.2-.19-.55-.33-.83-.33-1.02,0-2.06-.02-3.05.15-1.56.27-2.68-.08-3.28-1.51-.13-.31-.37-.37-.73-.24-4,1.33-8.03,2.65-12.06,4-.24.08-.45.34-.57.57-.19.4-.3.83-.45,1.29-.91-.16-1.77-.28-2.61-.47-.65-.14-1.21-.09-1.79.28-.34.22-.79.44-1.18.42-.88-.04-1.71-.23-2.04-1.18-.44-1.3-1.46-1.93-2.88-2.24-.83-.18-1.57-.26-2.39.03-.82.3-1.68.5-2.68.8.51-1.6.95-3.05,1.42-4.48.04-.12.22-.27.37-.3,1.28-.32,2.15-1.18,3.11-1.93.46-.37.92-.74,1.51-1.21-2.07-.12-3.95-.24-5.83-.33-.16,0-.37.12-.49.24-1.83,1.91-3.7,3.8-5.48,5.79-.92,1.03-1.89,1.95-3.07,2.74-1.15.77-2.24,1.26-3.61.86-.4-.12-.69.05-.97.35-.76.81-1.54,1.61-2.36,2.38-.24.22-.62.39-.95.42-.93.1-1.86.12-2.98.18.98,1.06,1.41,2.33,2.82,2.92,1.03.43,2,.67,3.14.39.53-.13,1.11-.22,1.63-.13,1.74.27,3.48.58,5.03,1.42.39.21.91.32,1.37.32,1.92,0,3.74.44,5.56.87.22.05.44.18.61.33,1.09.88,2.21,1.74,3.24,2.69,1.19,1.09,2.36,2.24,2.34,4.02,0,.46.17.91.2,1.38.03.47.25.69.74.7.2,0,.41.01.6.07.51.16.7-.07.84-.51.69-2.2,1.39-4.37,2.1-6.53.07-.2.18-.47.35-.56,1.32-.69,2.65-1.34,4.01-2.02.47.61.92,1.16,1.34,1.74.22.31.42.33.76.14,1.2-.67,2.41-1.31,3.61-1.98.21-.12.46-.31.53-.52.5-1.39,1.62-1.87,3.06-1.95.22-.01.43-.1.65-.11Z"/>
      <path class="st1" d="M534.57,649.17c0-.25-.03-.55-.17-.77-1.13-1.82-1.82-3.79-2.48-5.76-.32-.94-.63-1.92-1.15-2.76-.57-.92-1.45-1.67-2.07-2.57-.74-1.06-1.73-1.5-2.97-1.53-.21,0-.5-.03-.63.09-.67.57-1.37,1.13-1.92,1.8-1.07,1.29-2.04,2.67-3.08,4.01-.3.38-1.25.38-1.48-.03-.51-.95-.93-1.93-1.47-3.07.98.21,1.33-.31,1.73-.76.27-.31.58-.59.82-.92.16-.23.31-.52.32-.8.07-2.1.08-4.19.17-6.26.03-.7-.12-1.28-.63-1.8-.62-.64-.92-1.37-.95-2.24-.04-1.06-.21-2.13-.28-3.18-.03-.47-.2-.69-.69-.83-3.86-1.05-7.7-2.12-11.54-3.16-.31-.08-.7-.05-1.01.05-.91.28-1.79.65-2.71.92-.64.19-.96.46-.8,1.14.08.34,0,.71.08,1.05.17.79-.12,1.32-.89,1.62-1.44.55-1.84,1.55-1.74,3,.06.87-.28,1.85-.75,2.62-.24.39-1.14.42-1.75.6-.23.07-.48.11-.71.19-.15.06-.34.14-.42.26-.37.6-.83,1.19-1.01,1.85-.2.73-.19,1.51-.25,2.3-.07.58-.08,1.47-.1,1.68-.08.72.04,1.52-.24,2.15-.4.9-1.1,1.69-1.65,2.54-.09.14-.16.4-.09.52.48.76.94,1.55,1.53,2.23.58.67.65.62.07,1.33-.06.07-.11.14-.17.21-.58.71-.69,2.19-.22,2.98,1.39,2.36,2.61,4.82,3.48,7.45.84,2.54,1.14,5.07.23,7.72-.76,2.22-1.27,4.55-1.89,6.85-.06.23-.1.47-.16.79.35-.04.57-.06.8-.09,6.71-1.06,13.41-2.12,20.09-3.17,3.88-.61,7.76-1.21,11.63-1.85.29-.05.66-.27.78-.52.91-1.88,1.78-3.77,2.6-5.67.15-.34.15-.8.05-1.17-.12-.48-.1-.83.29-1.14.59-.46.9-1.04.89-1.84,0-.32.27-.66.49-.94.25-.31.55-.59.88-.81.8-.54,1.17-1.25,1.07-2.25-.07-.69.05-1.38.04-2.07ZM517.28,662.01l-5.2-2.73-5.2,2.73.99-5.79-4.21-4.1,5.81-.84,2.6-5.27,2.6,5.27,5.81.84-4.21,4.1.99,5.79Z"/>
    </g>
    <g>
      <path class="st5" d="M169.83,887.25c1.07-.08,1.9-.51,2.52-1.33.16-.21.46-.39.73-.44,1.11-.2,2.16-.13,3.07.63.26.22.58.4.9.51.18.06.51.02.63-.1.6-.56,1.2-1.13,1.69-1.77.51-.66,1.06-.82,1.88-.56.51.17,1.16.4,1.59.25,1.18-.41,2.27-1.01,3.32-1.5-1.22-1.06-2.4-2.06-3.54-3.09-.53-.48-.97-1.05-1.5-1.53-.2-.19-.55-.33-.83-.33-1.02,0-2.06-.02-3.05.15-1.56.27-2.68-.08-3.28-1.51-.13-.31-.37-.37-.73-.24-4,1.33-8.03,2.65-12.06,4-.24.08-.45.34-.57.57-.19.4-.3.83-.45,1.29-.91-.16-1.77-.28-2.61-.47-.65-.14-1.21-.09-1.79.28-.34.22-.79.44-1.18.42-.88-.04-1.71-.23-2.04-1.18-.44-1.3-1.46-1.93-2.88-2.24-.83-.18-1.57-.26-2.39.03-.82.3-1.68.5-2.68.8.51-1.6.95-3.05,1.42-4.48.04-.12.22-.27.37-.3,1.28-.32,2.15-1.18,3.11-1.93.46-.37.92-.74,1.51-1.21-2.07-.12-3.95-.24-5.83-.33-.16,0-.37.12-.49.24-1.83,1.91-3.7,3.8-5.48,5.79-.92,1.03-1.89,1.95-3.07,2.74-1.15.77-2.24,1.26-3.61.86-.4-.12-.69.05-.97.35-.77.81-1.54,1.61-2.36,2.38-.24.22-.62.39-.95.42-.93.1-1.86.12-2.98.18.98,1.06,1.41,2.33,2.82,2.92,1.03.43,2,.67,3.14.39.53-.13,1.11-.22,1.63-.13,1.74.27,3.48.58,5.03,1.42.39.21.91.32,1.37.32,1.92,0,3.74.44,5.56.87.22.05.44.18.61.33,1.09.88,2.21,1.74,3.24,2.69,1.19,1.09,2.36,2.24,2.34,4.02,0,.46.17.91.2,1.38.03.47.25.68.74.7.2,0,.41.01.6.07.51.16.7-.07.84-.51.69-2.2,1.39-4.37,2.1-6.53.07-.2.18-.47.35-.56,1.32-.69,2.65-1.34,4.01-2.02.47.61.92,1.16,1.34,1.74.22.31.42.33.76.14,1.2-.67,2.41-1.31,3.61-1.98.21-.12.46-.31.53-.52.5-1.39,1.62-1.87,3.06-1.95.22-.01.43-.1.65-.11Z"/>
      <path class="st5" d="M202.61,934.22c.29-.05.66-.27.78-.52.91-1.88,1.78-3.77,2.6-5.67.15-.34.15-.8.05-1.17-.12-.48-.1-.83.29-1.14.59-.46.9-1.04.89-1.84,0-.32.27-.66.49-.94.25-.31.55-.59.88-.81.8-.54,1.17-1.25,1.07-2.25-.07-.69.05-1.38.04-2.07,0-.25-.03-.55-.17-.77-1.13-1.82-1.82-3.79-2.48-5.76-.32-.94-.63-1.92-1.15-2.76-.57-.92-1.45-1.67-2.07-2.57-.74-1.06-1.73-1.5-2.97-1.53-.21,0-.5-.03-.63.09-.67.57-1.37,1.13-1.92,1.8-1.07,1.29-2.04,2.67-3.08,4.01-.3.38-1.25.38-1.48-.03-.51-.95-.93-1.93-1.47-3.07.98.21,1.33-.31,1.73-.76.27-.31.58-.59.82-.92.16-.23.31-.52.32-.8.07-2.1.08-4.19.17-6.26.03-.7-.12-1.28-.63-1.8-.62-.64-.92-1.37-.95-2.24-.04-1.06-.21-2.13-.28-3.18-.03-.47-.2-.69-.69-.83-3.86-1.05-7.7-2.12-11.54-3.16-.31-.08-.7-.05-1.01.05-.91.28-1.79.65-2.71.92-.64.19-.96.46-.8,1.14.08.34,0,.71.08,1.05.17.79-.12,1.32-.89,1.62-1.44.55-1.84,1.55-1.74,3,.06.87-.28,1.85-.75,2.62-.24.39-1.14.42-1.75.6-.23.07-.48.11-.71.19-.15.06-.34.14-.42.26-.37.6-.83,1.2-1.01,1.85-.2.73-.19,1.51-.25,2.3-.07.58-.08,1.47-.1,1.68-.08.72.04,1.52-.24,2.15-.4.9-1.1,1.69-1.65,2.54-.09.14-.16.4-.09.52.48.76.94,1.55,1.53,2.23.58.67.65.62.07,1.33-.06.07-.11.14-.17.21-.58.71-.69,2.19-.22,2.98,1.39,2.36,2.61,4.82,3.48,7.45.84,2.54,1.14,5.07.23,7.72-.76,2.22-1.27,4.55-1.89,6.85-.06.23-.1.47-.16.79.35-.04.57-.06.8-.09,6.71-1.06,13.41-2.12,20.09-3.17,3.88-.61,7.76-1.21,11.63-1.85ZM182.02,930.67l.99-5.79-4.21-4.1,5.81-.84,2.6-5.27,2.6,5.27,5.81.84-4.21,4.1.99,5.79-5.2-2.73-5.2,2.73Z"/>
      <polygon class="st5" points="166.45 959.14 173.59 958.26 173.59 951.74 166.54 952.6 166.45 959.14"/>
      <polygon class="st5" points="96.92 971.1 104.34 970.17 105.67 960.01 98.39 960.9 96.92 971.1"/>
      <polygon class="st5" points="191.1 949.61 191.55 962.7 198.7 961.81 198.07 948.76 191.1 949.61"/>
      <polygon class="st5" points="166.26 972.74 173.59 971.81 173.59 964.95 166.36 965.85 166.26 972.74"/>
      <polygon class="st5" points="138.59 1005.76 139.36 1009.72 135.39 1010.49 132.33 994.62 128.36 995.38 132.19 1015.23 144.1 1012.93 142.56 1004.99 138.59 1005.76"/>
      <polygon class="st5" points="149.28 1007.81 148.52 1003.84 154.47 1002.69 153.7 998.72 147.75 999.87 146.98 995.9 154.92 994.37 154.15 990.4 142.25 992.7 146.08 1012.54 157.99 1010.24 157.22 1006.27 149.28 1007.81"/>
      <path class="st5" d="M164.07,988.48l-3.97.77-3.2,4.74,3.07,15.87,3.97-.77-.77-3.97,3.97-.77.77,3.97,3.97-.77-3.07-15.87-4.73-3.2ZM162.41,1001.16l-1.53-7.94,3.97-.77,1.53,7.94-3.97.77Z"/>
      <polygon class="st5" points="177.51 994.12 178.28 998.09 180.26 997.71 181.03 1001.67 177.06 1002.44 174.76 990.54 180.71 989.39 179.95 985.42 173.99 986.57 170.79 991.3 173.09 1003.21 177.83 1006.41 185.76 1004.88 183.46 992.97 177.51 994.12"/>
      <polygon class="st5" points="191.85 983.12 194.92 998.99 190.95 999.76 187.88 983.88 183.91 984.65 186.98 1000.52 191.72 1003.73 195.69 1002.96 198.89 998.22 195.82 982.35 191.85 983.12"/>
      <polygon class="st5" points="95.18 944.07 93.16 944.31 93.16 936.5 91.14 936.74 91.14 946.5 97.2 945.79 97.2 941.88 95.18 942.12 95.18 944.07"/>
      <path class="st5" d="M102.24,945.19l2.02-.24v-7.81l-2.02-1.71-2.02.24-2.02,2.19v7.81l2.02-.24v-1.95l2.02-.24v1.95ZM100.22,941.52v-3.91l2.02-.24v3.91l-2.02.24Z"/>
      <polygon class="st5" points="107.29 939.71 109.31 944.35 111.33 944.11 111.33 934.35 109.31 934.58 109.31 939.47 107.29 934.82 105.27 935.06 105.27 944.83 107.29 944.59 107.29 939.71"/>
      <polygon class="st5" points="116.38 943.52 118.4 941.32 118.4 939.37 116.38 937.65 114.36 937.89 114.36 935.94 116.38 935.7 116.38 936.68 118.4 936.44 118.4 935.46 116.38 933.75 114.36 933.99 112.34 936.18 112.34 938.13 114.36 939.85 116.38 939.61 116.38 941.56 114.36 941.8 114.36 940.82 112.34 941.06 112.34 942.04 114.36 943.75 116.38 943.52"/>
      <polygon class="st5" points="123.45 940.73 122.44 940.84 122.44 934.98 123.45 934.86 123.45 932.91 119.41 933.39 119.41 935.34 120.42 935.22 120.42 941.08 119.41 941.2 119.41 943.16 123.45 942.68 123.45 940.73"/>
      <polygon class="st5" points="126.48 937.44 128.5 942.08 130.51 941.84 130.51 932.07 128.5 932.31 128.5 937.2 126.48 932.55 124.46 932.79 124.46 942.56 126.48 942.32 126.48 937.44"/>
      <polygon class="st5" points="137.58 941 137.58 935.14 134.55 935.5 134.55 937.46 135.56 937.34 135.56 939.29 133.54 939.53 133.54 933.67 136.57 933.31 136.57 931.36 133.54 931.72 131.52 933.91 131.52 939.77 133.54 941.48 137.58 941"/>
      <path class="st5" d="M225.31,974.15c0-1.33-.34-2.59-.93-3.69l-11.01,10.25c1.2.76,2.63,1.21,4.16,1.21,4.29,0,7.77-3.48,7.77-7.78Z"/>
      <path class="st5" d="M263.58,972.03l-3.96-23.4c-6.04-3.79-9.88-9.74-10.82-16.75-.83-6.19.83-12.4,4.3-16.17l16.44-16.95-19.17-4.72c-14.96-3.01-25.31-17.25-23.55-32.41l2.08-17.92-19.98,9.16c-11.87,5.44-26.19.79-32.6-10.59l-10.78-19.15-10.78,19.15c-6.41,11.38-20.72,16.03-32.6,10.59l-19.98-9.16,2.53,21.83c1.51,12.97-7.34,25.15-20.15,27.73l-21.54,4.34,18.23,19.81c3.49,3.79,5.22,8.66,5.21,13.53l-10.6,1.26,7.63,10.06-8.1,12.61,12.34-1.46-7.07,42.27,18.02-2.33,1.5-11.06,5.08-.64,4.3-4.15-1.75,14.67,6.01-.78c-2.58,7.38-1.86,15.94,2.48,22.74,4.82,7.56,13.19,11.97,21.76,11.97,2.25,0,4.51-.3,6.72-.93,6.31-1.63,16.23-4,26.73-6.51,18.07-4.32,38.55-9.22,48.67-12.22,6.31-1.61,11.3-6.78,13.04-13.51,1.18-4.58.7-9.24-1.22-13.13.47-1.2.8-2.47.95-3.8l30.58-3.96ZM223.61,959.8l-.1-1.08,7.04-.88,1.06,9.65c-1.63-3.44-4.48-6.2-7.99-7.69ZM192.03,976.49l-7.36.94-.56-26.97,6.77-7.15,6.88-.83,7.24,5.44.98,15.81c-2.5,2.76-4.03,6.41-4.03,10.42,0,.36.03.71.05,1.06l-2.65.34-.33-6.96-7.24.92.24,6.98ZM180.79,964.05l.09,6.84-7.3,7.97-14.87,1.91.93-33.7,13.94-1.68,7.02,5.5.09,6.5-3.53,3.75,3.62,2.91ZM175.01,941.05l-19.82,2.36h0s-3.44.41-3.44.41l-6.23-8.21,8.1-12.61-32.44,3.84c-3.61-5.97-5.66-12.72-5.66-19.89,0-24.01,22.88-43.54,51.01-43.54s51.01,19.53,51.01,43.54c0,12.86-6.59,24.42-17.01,32.4l-1.56-1.16-10.48,1.25-6.63,6.92-6.85-5.31ZM135.02,950.02l7.06-.85,6.25,15.54.79-16.39,7.02-.84-1.16,33.75-7.49.96-6.43-16.58-1.09,17.54-7.54.97,2.58-34.1ZM101.67,921.96c0-12.39,4.52-23.87,12.17-33.23-2.6,5.64-4.05,11.79-4.05,18.23,0,7.36,1.88,14.34,5.23,20.62l-12.82,1.52c-.34-2.34-.53-4.72-.53-7.13ZM219.22,888.72c7.65,9.37,12.17,20.84,12.17,33.23,0,4.32-.55,8.52-1.59,12.56l-2.86.34,2.02,18.74-8.25,1.02-1.72-18.81-7.26.87c7.23-8.27,11.54-18.56,11.54-29.72,0-6.44-1.45-12.59-4.05-18.23ZM209.39,960.89l-1.35-19.65,6.82-.82,1.5,18.2c-2.54.19-4.92.99-6.97,2.26ZM206.73,974.15c0-5.96,4.85-10.81,10.81-10.81s10.81,4.85,10.81,10.81-4.85,10.81-10.81,10.81-10.81-4.85-10.81-10.81ZM235.63,970.9l-3.8-32.52,6.75-.81,3.34,25.59,7.06-.89-.96-6.62,6.95-.87,2.11,13.36-21.46,2.75ZM83.49,915.39l-14.62-15.89,16.32-3.28c14.32-2.88,24.22-16.5,22.53-31.02l-1.92-16.54,15.13,6.94c13.28,6.09,29.29.88,36.46-11.85l8.17-14.51,8.17,14.51c7.17,12.73,23.18,17.93,36.46,11.85l15.13-6.94-1.47,12.63c-1.94,16.7,9.45,32.38,25.87,35.68l14.03,3.45-12.83,13.22c-4.08,4.44-6.04,11.57-5.09,18.63.91,6.8,4.24,12.71,9.49,16.95l-10.41,1.45-2.47-17.67-.6.07c.12-1.6.2-3.21.2-4.83,0-38.96-33.88-70.66-75.52-70.66s-75.52,31.7-75.52,70.66c0,.72.03,1.44.05,2.16l-1.6.19c-.07-5.48-2.04-10.94-5.97-15.21ZM82.42,950.49l5.4-8.39-5.4-7.12,17.22-2.04,3.18-.38h0l43.8-5.19-5.4,8.39,5.4,7.12-11.61,1.37-4.72.56h0l-21.79,2.58h0l-7.72.91h0l-18.37,2.17ZM111.74,969.26l-8.31,7.92-7.52.95-1.57,10.89-7.7.99,5.51-34.82,14.39-1.73,6.4,5.68-1.18,10.13ZM114.27,979.31l3.76-.48,2.12-20.59-3.61.44.72-6.53,14.22-1.71-.54,6.49-3.59.44-1.83,20.52,3.74-.47-.59,7.19-15.19,1.95.8-7.24ZM226.49,991.17c-1.12,4.33-4.13,7.51-8.04,8.49l-.15.04c-9.91,2.94-30.35,7.83-48.37,12.14-10.54,2.52-20.49,4.9-26.94,6.57-7.66,2.18-16.39-1.2-20.75-8.05-3.89-6.07-3.82-14.06-.22-20.02l11.26-1.46h0s10.87-1.41,10.87-1.41h0s9.46-1.22,9.46-1.22h0s22.43-2.9,22.43-2.9l27.01-3.49c.14.34.29.68.45,1.01l-5.7,1.1,3.83,19.84,11.91-2.3-.77-3.97-7.94,1.53-.77-3.97,5.95-1.15-.77-3.97-5.95,1.15-.77-3.97,3.4-.66c2.86,3.19,6.99,5.21,11.6,5.21,3.48,0,6.7-1.16,9.29-3.1.16,1.47.06,3.01-.34,4.55Z"/>
    </g>
    <g>
      <path class="st4" d="M689.37,955.14l7.08-42.32-15.08,1.79,10.79-16.79-9.84-12.98,91.17-10.79-10.79,16.79,3.54,4.67,22.69-2.71,5.49,4.26,5.32-5.55,58.61-6.99,2.46,17.6,14.61-2.03,5.13,30.34-31.24,4.04.4,3.63c.86,3.58.82,7.38-.14,11.09-2.06,7.96-8.02,14.1-15.56,16.02-10.09,2.99-30.61,7.9-48.72,12.23-10.49,2.51-20.37,4.87-26.68,6.5-2.42.69-4.99,1.04-7.59,1.04-9.9,0-19.37-5.21-24.71-13.59-3.8-5.94-5.29-13.33-4.16-20.49l-32.76,4.24Z"/>
      <g>
        <polygon class="st5" points="786.5 907.13 779.45 907.98 779.36 914.52 786.5 913.64 786.5 907.13"/>
        <polygon class="st5" points="709.83 926.48 717.25 925.56 718.58 915.39 711.3 916.28 709.83 926.48"/>
        <polygon class="st5" points="811.61 917.2 810.98 904.15 804.01 904.99 804.46 918.09 811.61 917.2"/>
        <polygon class="st5" points="786.5 920.33 779.27 921.23 779.17 928.12 786.5 927.19 786.5 920.33"/>
        <polygon class="st5" points="751.5 961.14 752.27 965.11 748.3 965.87 745.24 950 741.27 950.77 745.1 970.61 757.01 968.31 755.47 960.37 751.5 961.14"/>
        <polygon class="st5" points="762.19 963.19 761.43 959.22 767.38 958.07 766.61 954.1 760.66 955.25 759.89 951.28 767.83 949.75 767.06 945.78 755.16 948.08 758.99 967.93 770.9 965.63 770.13 961.66 762.19 963.19"/>
        <path class="st5" d="M776.98,943.87l-3.97.77-3.2,4.74,3.07,15.87,3.97-.77-.77-3.97,3.97-.77.77,3.97,3.97-.77-3.07-15.87-4.74-3.2ZM775.32,956.54l-1.53-7.94,3.97-.77,1.53,7.94-3.97.77Z"/>
        <polygon class="st5" points="790.42 949.5 791.19 953.47 793.17 953.09 793.94 957.06 789.97 957.82 787.67 945.92 793.62 944.77 792.86 940.8 786.9 941.95 783.7 946.69 786 958.59 790.74 961.79 798.67 960.26 796.37 948.35 790.42 949.5"/>
        <polygon class="st5" points="804.76 938.5 807.83 954.37 803.86 955.14 800.79 939.27 796.82 940.03 799.89 955.91 804.63 959.11 808.6 958.34 811.8 953.61 808.73 937.73 804.76 938.5"/>
        <polygon class="st5" points="708.09 899.46 706.07 899.69 706.07 891.88 704.05 892.12 704.05 901.89 710.11 901.17 710.11 897.26 708.09 897.5 708.09 899.46"/>
        <path class="st5" d="M713.13,891.04l-2.02,2.19v7.81l2.02-.24v-1.95l2.02-.24v1.95l2.02-.24v-7.81l-2.02-1.71-2.02.24ZM715.15,896.66l-2.02.24v-3.91l2.02-.24v3.91Z"/>
        <polygon class="st5" points="722.22 894.85 720.2 890.21 718.18 890.45 718.18 900.21 720.2 899.97 720.2 895.09 722.22 899.73 724.24 899.5 724.24 889.73 722.22 889.97 722.22 894.85"/>
        <polygon class="st5" points="727.27 889.37 725.25 891.56 725.25 893.52 727.27 895.23 729.29 894.99 729.29 896.95 727.27 897.18 727.27 896.21 725.25 896.45 725.25 897.42 727.27 899.14 729.29 898.9 731.31 896.71 731.31 894.75 729.29 893.04 727.27 893.28 727.27 891.32 729.29 891.09 729.29 892.06 731.31 891.82 731.31 890.85 729.29 889.13 727.27 889.37"/>
        <polygon class="st5" points="732.32 890.73 733.33 890.61 733.33 896.47 732.32 896.59 732.32 898.54 736.36 898.06 736.36 896.11 735.35 896.23 735.35 890.37 736.36 890.25 736.36 888.3 732.32 888.77 732.32 890.73"/>
        <polygon class="st5" points="741.4 892.58 739.39 887.94 737.37 888.18 737.37 897.94 739.39 897.7 739.39 892.82 741.4 897.46 743.42 897.22 743.42 887.46 741.4 887.7 741.4 892.58"/>
        <polygon class="st5" points="747.46 892.84 748.47 892.72 748.47 894.67 746.45 894.91 746.45 889.05 749.48 888.69 749.48 886.74 746.45 887.1 744.43 889.29 744.43 895.15 746.45 896.87 750.49 896.39 750.49 890.53 747.46 890.89 747.46 892.84"/>
        <path class="st5" d="M845.91,931.37l30.58-3.96-3.96-23.4-14.71,2.05-2.47-17.67-15.51,1.85,2.02,18.74-8.25,1.02-1.72-18.81-15.69,1.87.23,3.89-4.55-3.38-10.48,1.25-6.63,6.92-6.85-5.31-19.82,2.36h0s-3.44.41-3.44.41l-6.23-8.21,8.1-12.61-77.73,9.2,7.63,10.06-8.1,12.61,12.34-1.46-7.07,42.27,18.02-2.33,1.5-11.06,5.08-.64,4.3-4.15-1.75,14.67,6.01-.78c-2.58,7.38-1.86,15.94,2.48,22.74,4.82,7.56,13.19,11.97,21.76,11.97,2.25,0,4.51-.3,6.72-.93,6.31-1.63,16.23-4,26.73-6.51,18.07-4.32,38.55-9.22,48.67-12.22,6.31-1.61,11.3-6.78,13.04-13.51,1.18-4.58.7-9.24-1.22-13.13.47-1.2.8-2.47.95-3.8ZM819.64,929.53c0-5.96,4.85-10.81,10.81-10.81s10.81,4.85,10.81,10.81-4.85,10.81-10.81,10.81-10.81-4.85-10.81-10.81ZM851.48,892.96l3.34,25.59,7.06-.89-.96-6.62,6.95-.87,2.11,13.36-21.46,2.75-3.8-32.52,6.75-.81ZM843.45,913.22l1.06,9.65c-1.63-3.44-4.48-6.2-7.99-7.69l-.1-1.08,7.04-.88ZM827.78,895.81l1.5,18.2c-2.54.19-4.92.99-6.97,2.26l-1.35-19.65,6.82-.82ZM803.8,898.69l6.88-.83,7.24,5.44.98,15.81c-2.5,2.76-4.03,6.41-4.03,10.42,0,.36.03.71.05,1.06l-2.65.34-.33-6.96-7.24.92.24,6.98-7.36.94-.56-26.97,6.77-7.15ZM772.55,902.45l13.94-1.68,7.02,5.5.09,6.5-3.53,3.75,3.62,2.91.09,6.84-7.3,7.97-14.87,1.91.93-33.7ZM762.04,903.71l7.02-.84-1.16,33.75-7.49.96-6.43-16.58-1.09,17.54-7.54.97,2.58-34.1,7.06-.85,6.25,15.54.79-16.39ZM695.33,905.88l5.4-8.39-5.4-7.12,64.2-7.6-5.4,8.39,5.4,7.12-64.2,7.6ZM724.65,924.64l-8.31,7.92-7.52.95-1.57,10.89-7.7.99,5.51-34.82,14.39-1.73,6.4,5.68-1.18,10.13ZM727.18,934.7l3.76-.48,2.12-20.59-3.61.44.72-6.53,14.22-1.71-.54,6.49-3.59.44-1.83,20.52,3.74-.47-.59,7.19-15.19,1.95.8-7.24ZM839.4,946.55c-1.12,4.33-4.13,7.51-8.04,8.49l-.15.04c-9.91,2.94-30.35,7.83-48.37,12.14-10.54,2.52-20.49,4.9-26.94,6.57-7.66,2.18-16.39-1.2-20.75-8.05-3.89-6.07-3.82-14.06-.22-20.02l11.26-1.46h0s10.87-1.41,10.87-1.41h0s9.46-1.22,9.46-1.22h0s22.43-2.9,22.43-2.9l27.01-3.49c.14.34.29.68.45,1.01l-5.7,1.1,3.83,19.84,11.91-2.3-.77-3.97-7.94,1.53-.77-3.97,5.95-1.15-.77-3.97-5.95,1.15-.77-3.97,3.4-.66c2.86,3.19,6.99,5.21,11.6,5.21,3.48,0,6.7-1.16,9.29-3.1.16,1.47.06,3.01-.34,4.55Z"/>
        <path class="st5" d="M838.22,929.53c0-1.33-.34-2.59-.93-3.69l-11.01,10.25c1.2.76,2.63,1.21,4.16,1.21,4.29,0,7.77-3.48,7.77-7.78Z"/>
      </g>
    </g>
    <g>
      <path class="st4" d="M600.43,957.21c-1.56-2.03-4.22-4.57-7.3-7.5-6.96-6.62-16.49-15.69-15.67-22.14l.02-.2-.03-.2c-.87-6.39,8.72-15.51,15.72-22.17,3.08-2.93,5.73-5.45,7.26-7.45l1.44-1.89-2.32-.49c-42.05-8.91-48.3-13.44-41.3-56.08l.47-2.88-2.62,1.29c-18.94,9.37-31.06,14.85-39.53,12.09-8.15-2.66-14.1-12.57-24.83-33l-1.33-2.53-1.33,2.53c-9.82,18.71-16.4,30.27-24.87,33.01-8.16,2.64-18.8-1.89-39.48-12.1l-2.56-1.27.41,2.83c3.05,20.91,4.53,34.12-.72,41.33-5.05,6.93-16.31,9.52-39.06,13.42l-2.74.47,1.9,2.03c3,3.21,5.73,6.07,8.19,8.65,10.88,11.42,16.34,17.15,16.37,22.38.03,5.23-5.38,10.9-16.15,22.19-2.52,2.64-5.32,5.58-8.41,8.9l-1.9,2.03,2.74.47c20.83,3.56,33.85,6.24,39.08,13.45,5.03,6.94,4.02,18.46.69,41.29l-.41,2.83,2.56-1.27c18.94-9.36,31.06-14.85,39.53-12.09,8.15,2.66,14.1,12.57,24.83,33l1.33,2.53,1.33-2.53c9.82-18.71,16.39-30.27,24.87-33.01,8.44-2.73,20.55,2.75,39.48,12.1l2.62,1.3-.48-2.89c-3.81-22.88-3.13-33.99,2.51-40.98,5.74-7.11,17.08-10.54,38.79-15.09l2.33-.49-1.45-1.89Z"/>
      <g>
        <path class="st5" d="M573.46,927.38c.12-4.91,1.77-9.44,4.5-12.41l16.44-16.95-19.17-4.72c-14.96-3.01-25.31-17.25-23.55-32.41l2.08-17.92-19.98,9.16c-11.87,5.44-26.19.79-32.6-10.59l-10.78-19.15-10.78,19.15c-6.41,11.38-20.72,16.03-32.6,10.59l-19.98-9.16,2.53,21.83c1.51,12.97-7.34,25.15-20.15,27.73l-21.54,4.34,18.23,19.81c2.74,2.97,4.48,6.67,5.05,10.7-.57,4.03-2.31,7.73-5.05,10.7l-18.23,19.81,21.54,4.33c12.8,2.58,21.65,14.76,20.15,27.73l-2.53,21.83,19.98-9.16c11.87-5.44,26.19-.79,32.6,10.59l10.78,19.15,10.78-19.15c6.41-11.38,20.72-16.03,32.6-10.59l19.98,9.16-2.08-17.92c-1.76-15.16,8.58-29.4,23.61-32.42l19.11-4.7-16.42-16.92c-2.75-2.99-4.4-7.52-4.53-12.43ZM574.64,958.51c-16.48,3.32-27.87,19-25.94,35.7l1.47,12.63-15.13-6.94c-13.28-6.09-29.29-.88-36.46,11.85l-8.17,14.51-8.17-14.51c-5.14-9.13-14.83-14.39-24.8-14.39-3.93,0-7.91.82-11.66,2.54l-15.13,6.94,1.92-16.54c1.68-14.51-8.21-28.13-22.53-31.02l-16.32-3.28,14.62-15.89c3.2-3.48,5.22-7.81,5.84-12.54l.03-.19-.03-.19c-.62-4.72-2.64-9.06-5.84-12.54l-14.62-15.89,16.32-3.28c14.32-2.88,24.22-16.5,22.53-31.02l-1.92-16.54,15.13,6.94c13.28,6.09,29.29.88,36.46-11.85l8.17-14.51,8.17,14.51c7.17,12.73,23.18,17.93,36.46,11.85l15.13-6.94-1.47,12.63c-1.94,16.7,9.45,32.38,25.87,35.68l14.03,3.45-12.83,13.22c-3.25,3.53-5.18,8.79-5.32,14.43v.04s0,.04,0,.04c.13,5.64,2.07,10.9,5.35,14.46l12.8,13.2-13.97,3.44Z"/>
        <path class="st5" d="M491.39,856.85c-41.64,0-75.52,31.7-75.52,70.66s33.88,70.66,75.52,70.66,75.52-31.7,75.52-70.66-33.88-70.66-75.52-70.66ZM529.77,953.03l3.5,11.71c-1.18.88-2.4,1.73-3.66,2.54l-9.4-8.03c-4.17-3.56-9.82-4.84-15.12-3.41-5.3,1.43-9.54,5.37-11.36,10.54l-4.17,11.87c-1.44-.03-2.87-.1-4.29-.22l-2.93-12.23c-1.28-5.33-5.1-9.69-10.22-11.65-5.12-1.96-10.87-1.27-15.39,1.85l-9.77,6.75c-1.23-1.02-2.42-2.07-3.56-3.16l4.46-10.75c1.37-3.29,1.61-6.88.8-10.26,10.41,10.34,25.69,16.89,42.71,16.89,15.06,0,28.75-5.13,38.92-13.47-1.41,3.46-1.63,7.34-.53,11.02ZM436.45,893.98c-.26-.6-.57-1.17-.9-1.74.98-1.46,2.03-2.88,3.15-4.26-.89,1.94-1.64,3.94-2.25,5.99ZM440.45,927.88c-2.28-1.24-4.85-1.95-7.53-2.01l-6.17-.14c-.13-1.49-.22-2.99-.22-4.51s.07-2.94.19-4.38l3.23-1.98c1.97-1.21,3.62-2.79,4.91-4.63.59,6.29,2.53,12.24,5.59,17.64ZM432.87,927.87c4.9.12,9.23,2.53,11.91,6.64s3.13,9.05,1.25,13.57l-4.13,9.97c-8.07-8.39-13.44-18.84-14.93-30.32l5.91.14ZM491.39,949.76c-28.13,0-51.01-19.53-51.01-43.54s22.88-43.54,51.01-43.54,51.01,19.53,51.01,43.54-22.88,43.54-51.01,43.54ZM434.32,894.16c.55,1.1.97,2.25,1.23,3.45-.57,2.8-.89,5.67-.89,8.61,0,.1,0,.19,0,.29-1.18,2.72-3.15,5.05-5.76,6.65l-1.91,1.17c.99-7.22,3.54-14.03,7.32-20.16ZM450.52,974.19c2.93,1.81,6.03,3.43,9.25,4.84l2.28,7.16c-2.32-1.01-4.58-2.13-6.76-3.37l-4.77-8.63ZM448.61,964.07l9.28-6.41c4.03-2.78,8.96-3.38,13.53-1.63,4.57,1.75,7.85,5.48,8.99,10.24l2.77,11.55c-13.15-1.47-25.09-6.41-34.57-13.76ZM495.63,967.05c1.62-4.62,5.26-8,9.99-9.27,4.73-1.27,9.57-.18,13.3,3l8.92,7.62c-10.32,6.19-22.76,9.84-36.15,9.89l3.95-11.24ZM534.97,963.45l-3.29-10.99c-1.4-4.69-.44-9.57,2.63-13.37s7.64-5.78,12.52-5.39l7.66.6c-3.05,11.41-9.99,21.51-19.53,29.14ZM555,932.34l-8-.63c-2.83-.23-5.61.28-8.12,1.41,3.78-5.01,6.54-10.66,8.01-16.71,1.06,1.76,2.47,3.34,4.18,4.65l5.02,3.83c-.18,2.53-.55,5.02-1.1,7.45ZM544.07,887.98c2.06,2.52,3.89,5.21,5.47,8.02-.79.78-1.51,1.62-2.13,2.54-.67-3.66-1.79-7.2-3.34-10.55ZM491.39,992.25c-6.75,0-13.28-.91-19.45-2.58l-4.59-7.8c7.52,2.38,15.62,3.68,24.04,3.68,30.36,0,56.38-16.83,66.99-40.57-8.22,27.23-35.13,47.27-66.99,47.27ZM556.21,922.46l-3.92-2.99c-2.19-1.67-3.79-3.85-4.74-6.3.37-2.27.58-4.59.58-6.95,0-1.52-.09-3.02-.24-4.5.66-1.44,1.55-2.75,2.65-3.91,3.67,7.15,5.72,15.07,5.72,23.4,0,.42-.03.82-.04,1.24Z"/>
        <path class="st5" d="M494.69,886.51c1.07-.08,1.9-.51,2.52-1.33.16-.21.46-.39.73-.44,1.11-.2,2.16-.13,3.07.63.26.22.58.4.9.51.18.06.51.02.63-.1.6-.56,1.2-1.13,1.69-1.77.51-.66,1.06-.82,1.88-.56.51.17,1.16.4,1.59.25,1.18-.41,2.27-1.01,3.32-1.5-1.22-1.06-2.4-2.06-3.54-3.09-.53-.48-.97-1.05-1.5-1.53-.2-.19-.55-.33-.83-.33-1.02,0-2.06-.02-3.05.15-1.56.27-2.68-.08-3.28-1.51-.13-.31-.37-.37-.73-.24-4,1.33-8.03,2.65-12.06,4-.24.08-.45.34-.57.57-.19.4-.3.83-.45,1.29-.91-.16-1.77-.28-2.61-.47-.65-.14-1.21-.09-1.79.28-.34.22-.79.44-1.18.42-.88-.04-1.71-.23-2.04-1.18-.44-1.3-1.46-1.93-2.88-2.24-.83-.18-1.57-.26-2.39.03-.82.3-1.68.5-2.68.8.51-1.6.95-3.05,1.42-4.48.04-.12.22-.27.37-.3,1.28-.32,2.15-1.18,3.11-1.93.46-.37.92-.74,1.51-1.21-2.07-.12-3.95-.24-5.83-.33-.16,0-.37.12-.49.24-1.83,1.91-3.7,3.8-5.48,5.79-.92,1.03-1.89,1.95-3.07,2.74-1.15.77-2.24,1.26-3.61.86-.4-.12-.69.05-.97.35-.76.81-1.54,1.61-2.36,2.38-.24.22-.62.39-.95.42-.93.1-1.86.12-2.98.18.98,1.06,1.41,2.33,2.82,2.92,1.03.43,2,.67,3.14.39.53-.13,1.11-.22,1.63-.13,1.74.27,3.48.58,5.03,1.42.39.21.91.32,1.37.32,1.92,0,3.74.44,5.56.87.22.05.44.18.61.33,1.09.88,2.21,1.74,3.24,2.69,1.19,1.09,2.36,2.24,2.34,4.02,0,.46.17.91.2,1.38.03.47.25.69.74.7.2,0,.41.01.6.07.51.16.7-.07.84-.51.69-2.2,1.39-4.37,2.1-6.53.07-.2.18-.47.35-.56,1.32-.69,2.65-1.34,4.01-2.02.47.61.92,1.16,1.34,1.74.22.31.42.33.76.14,1.2-.67,2.41-1.31,3.61-1.98.21-.12.46-.31.53-.52.5-1.39,1.62-1.87,3.06-1.95.22-.01.43-.1.65-.11Z"/>
        <path class="st5" d="M534.57,917.09c0-.25-.03-.55-.17-.77-1.13-1.82-1.82-3.79-2.48-5.76-.32-.94-.63-1.92-1.15-2.76-.57-.92-1.45-1.67-2.07-2.57-.74-1.06-1.73-1.5-2.97-1.53-.21,0-.5-.03-.63.09-.67.57-1.37,1.13-1.92,1.8-1.07,1.29-2.04,2.67-3.08,4.01-.3.38-1.25.38-1.48-.03-.51-.95-.93-1.93-1.47-3.07.98.21,1.33-.31,1.73-.76.27-.31.58-.59.82-.92.16-.23.31-.52.32-.8.07-2.1.08-4.19.17-6.26.03-.7-.12-1.28-.63-1.8-.62-.64-.92-1.37-.95-2.24-.04-1.06-.21-2.13-.28-3.18-.03-.47-.2-.69-.69-.83-3.86-1.05-7.7-2.12-11.54-3.16-.31-.08-.7-.05-1.01.05-.91.28-1.79.65-2.71.92-.64.19-.96.46-.8,1.14.08.34,0,.71.08,1.05.17.79-.12,1.32-.89,1.62-1.44.55-1.84,1.55-1.74,3,.06.87-.28,1.85-.75,2.62-.24.39-1.14.42-1.75.6-.23.07-.48.11-.71.19-.15.06-.34.14-.42.26-.37.6-.83,1.19-1.01,1.85-.2.73-.19,1.51-.25,2.3-.07.58-.08,1.47-.1,1.68-.08.72.04,1.52-.24,2.15-.4.9-1.1,1.69-1.65,2.54-.09.14-.16.4-.09.52.48.76.94,1.55,1.53,2.23.58.67.65.62.07,1.33-.06.07-.11.14-.17.21-.58.71-.69,2.19-.22,2.98,1.39,2.36,2.61,4.82,3.48,7.45.84,2.54,1.14,5.07.23,7.72-.76,2.22-1.27,4.55-1.89,6.85-.06.23-.1.47-.16.79.35-.04.57-.06.8-.09,6.71-1.06,13.41-2.12,20.09-3.17,3.88-.61,7.76-1.21,11.63-1.85.29-.05.66-.27.78-.52.91-1.88,1.78-3.77,2.6-5.67.15-.34.15-.8.05-1.17-.12-.48-.1-.83.29-1.14.59-.46.9-1.04.89-1.84,0-.32.27-.66.49-.94.25-.31.55-.59.88-.81.8-.54,1.17-1.25,1.07-2.25-.07-.69.05-1.38.04-2.07ZM517.28,929.93l-5.2-2.73-5.2,2.73.99-5.79-4.21-4.1,5.81-.84,2.6-5.27,2.6,5.27,5.81.84-4.21,4.1.99,5.79Z"/>
      </g>
    </g>
  </g>
</svg>